<?xml version="1.0" encoding="UTF-8"?>
<svg version="1.1" xmlns="http://www.w3.org/2000/svg" width="2252" height="781">
<path d="M0 0 C4.16994205 3.46147984 8.18495094 6.97640699 11.77148438 11.05078125 C12.64740234 12.03111328 12.64740234 12.03111328 13.54101562 13.03125 C20.01992293 20.69773706 25.17071791 29.28530515 30.40429688 37.82275391 C31.58898102 39.75336596 32.78737561 41.6744497 33.99023438 43.59375 C41.95572406 56.63892696 45.19866059 72.0042441 42.13476562 87.2109375 C40.26191805 93.56034758 40.26191805 93.56034758 38.77148438 95.05078125 C38.44614104 96.66367737 38.16525246 98.28559959 37.90429688 99.91015625 C36.86318396 105.84239078 35.39529111 111.54094989 33.64648438 117.30078125 C33.38867188 118.24179688 33.13085938 119.1828125 32.86523438 120.15234375 C30.71367986 127.19917826 27.64154293 130.72216664 21.77148438 135.05078125 C20.76601562 135.89125 19.76054688 136.73171875 18.72460938 137.59765625 C17.83257813 138.3246875 16.94054688 139.05171875 16.02148438 139.80078125 C15.11914062 140.538125 14.21679688 141.27546875 13.28710938 142.03515625 C12.45695312 142.7003125 11.62679688 143.36546875 10.77148438 144.05078125 C9.77568359 144.91123047 9.77568359 144.91123047 8.75976562 145.7890625 C6.27627246 147.36503164 4.63344513 147.4838703 1.70898438 147.48828125 C0.85175781 147.50761719 -0.00546875 147.52695313 -0.88867188 147.546875 C-3.22851562 147.05078125 -3.22851562 147.05078125 -4.99414062 145.2578125 C-6.6685907 142.26393816 -6.90316593 139.43441812 -7.22851562 136.05078125 C-8.37320312 135.71046875 -8.37320312 135.71046875 -9.54101562 135.36328125 C-12.93378521 133.70634727 -13.57284826 132.42562104 -15.22851562 129.05078125 C-15.82592872 126.42603574 -16.31964399 123.88929227 -16.72851562 121.23828125 C-17.56684989 116.32788021 -18.453085 111.68928456 -20.42382812 107.09765625 C-21.51329786 104.32638372 -22.24149355 101.48098851 -23.04101562 98.61328125 C-26.43591976 87.61480907 -31.57441353 82.05064521 -41.22851562 76.05078125 C-42.56020881 75.19029216 -43.89086822 74.32820191 -45.22070312 73.46484375 C-46.63902393 72.55450771 -48.05829634 71.64565261 -49.47851562 70.73828125 C-50.15188965 70.30523682 -50.82526367 69.87219238 -51.51904297 69.42602539 C-60.23809774 63.95856373 -68.24851762 62.69427487 -78.40429688 64.66796875 C-91.28032292 68.22106019 -102.23442035 75.3451809 -112.22851562 84.05078125 C-113.05996094 84.76105469 -113.89140625 85.47132812 -114.74804688 86.203125 C-125.53354115 95.63007775 -133.58718621 106.04862418 -141.22851562 118.05078125 C-141.85757812 119.035625 -142.48664063 120.02046875 -143.13476562 121.03515625 C-144.2672581 122.81625805 -145.39752281 124.59877859 -146.52539062 126.3828125 C-151.07445127 133.50897861 -155.82836161 140.49321271 -160.66601562 147.42578125 C-161.81072229 149.09089822 -162.95351217 150.75731939 -164.09619141 152.42382812 C-165.17770249 153.9777716 -166.29415638 155.5072205 -167.41210938 157.03515625 C-177.60644357 171.6452181 -183.34064616 189.17244624 -189.13867188 205.90625 C-193.03800402 217.15701121 -197.44536906 228.19144452 -202.06933594 239.16210938 C-204.51409747 245.033845 -206.52378427 250.92298542 -208.22851562 257.05078125 C-207.66455078 257.12594971 -207.10058594 257.20111816 -206.51953125 257.27856445 C-203.92111766 257.63049946 -201.32491524 257.99679507 -198.72851562 258.36328125 C-197.84164063 258.48123047 -196.95476562 258.59917969 -196.04101562 258.72070312 C-181.87931438 260.75124117 -181.87931438 260.75124117 -176.97851562 265.86328125 C-173.13500536 269.4404975 -168.74670135 271.40066861 -163.99804688 273.55859375 C-161.14465273 275.09596549 -159.30515008 276.57423807 -157.22851562 279.05078125 C-156.35976439 282.5257862 -156.22851562 285.45553528 -156.22851562 289.05078125 C-155.40351562 289.79328125 -154.57851562 290.53578125 -153.72851562 291.30078125 C-150.80881504 294.51245189 -150.64794935 295.84686872 -150.56445312 299.98828125 C-151.63358658 303.30888399 -153.58400382 304.81065811 -156.22851562 307.05078125 C-158.98072438 308.24560093 -161.79789217 308.93274314 -164.71289062 309.62109375 C-165.52792053 309.82886444 -166.34295044 310.03663513 -167.18267822 310.2507019 C-169.77747692 310.90887493 -172.37739266 311.54311479 -174.97851562 312.17578125 C-177.56391686 312.82043891 -180.14800816 313.47004389 -182.73150635 314.12228394 C-184.33410046 314.52516951 -185.93799318 314.92293993 -187.543396 315.31448364 C-192.22070171 316.47029239 -196.74698816 317.85023627 -201.28375244 319.47555542 C-203.22851562 320.05078125 -203.22851562 320.05078125 -206.22851562 320.05078125 C-206.25357178 320.70038818 -206.27862793 321.34999512 -206.30444336 322.01928711 C-206.42165413 325.00909213 -206.54380482 327.9986766 -206.66601562 330.98828125 C-206.70533203 332.00986328 -206.74464844 333.03144531 -206.78515625 334.08398438 C-206.82705078 335.09267578 -206.86894531 336.10136719 -206.91210938 337.140625 C-206.94876709 338.05706787 -206.9854248 338.97351074 -207.02319336 339.91772461 C-207.18614735 342.40427459 -207.43650864 344.83000723 -207.73999023 347.30053711 C-208.30091185 352.19868225 -208.37268371 357.03878463 -208.36132812 361.96484375 C-208.36255676 362.88999283 -208.3637854 363.81514191 -208.36505127 364.76832581 C-208.36673153 367.73750854 -208.36041169 370.70660713 -208.35351562 373.67578125 C-208.35329407 374.68234772 -208.35307251 375.68891418 -208.35284424 376.72598267 C-208.34961596 389.16169638 -208.29027904 401.57023588 -207.40869141 413.98095703 C-207.2781489 416.0009091 -207.2415325 418.02665718 -207.22851562 420.05078125 C-207.88851563 420.71078125 -208.54851562 421.37078125 -209.22851562 422.05078125 C-210.21851563 422.05078125 -211.20851563 422.05078125 -212.22851562 422.05078125 C-212.22851562 421.39078125 -212.22851562 420.73078125 -212.22851562 420.05078125 C-212.88851562 420.05078125 -213.54851563 420.05078125 -214.22851562 420.05078125 C-216.99526358 412.277537 -217.45883189 405.2029444 -217.13867188 397.04296875 C-217.20836528 393.94615764 -217.42941912 391.95424268 -218.18554688 389.0625 C-219.86636775 382.17372029 -219.69893592 375.04178524 -219.85351562 367.98828125 C-219.89177758 366.53578598 -219.93083381 365.08331141 -219.97070312 363.63085938 C-220.06579667 360.10435813 -220.15014677 356.57769846 -220.22851562 353.05078125 C-220.27983321 359.46960986 -220.31450407 365.8883843 -220.33837891 372.30737305 C-220.34834718 374.48447649 -220.36192667 376.66156686 -220.37939453 378.83862305 C-220.51061811 395.63138104 -219.56166687 411.09618783 -215.29101562 427.42578125 C-215.03900391 428.42738281 -214.78699219 429.42898438 -214.52734375 430.4609375 C-213.36772012 434.99859519 -212.1257375 439.39373469 -210.47460938 443.77734375 C-208.92089478 448.21206176 -209.31399862 451.47819622 -210.22851562 456.05078125 C-201.01452496 451.38175783 -192.08037225 446.56516983 -183.57983398 440.67822266 C-179.4681767 437.83264954 -175.25104327 435.23163128 -170.95239258 432.67749023 C-166.02827663 429.73679071 -161.16092029 426.70511647 -156.29101562 423.67578125 C-155.28361328 423.05445313 -154.27621094 422.433125 -153.23828125 421.79296875 C-146.33914284 417.49819963 -139.75125197 412.89452405 -133.22851562 408.05078125 C-131.50077077 406.79881677 -129.77177353 405.54857709 -128.04101562 404.30078125 C-126.10146229 402.8869271 -124.1641869 401.46994558 -122.22851562 400.05078125 C-121.62346191 399.60718262 -121.0184082 399.16358398 -120.39501953 398.70654297 C-112.61621861 392.98632331 -104.99519438 387.16099445 -97.68359375 380.85107422 C-94.65120279 378.23539862 -91.56386768 375.75615749 -88.35351562 373.36328125 C-84.83594875 370.66138205 -82.01188606 367.75063189 -79.17382812 364.3515625 C-76.77156854 361.5103358 -74.25432791 358.78156333 -71.72851562 356.05078125 C-68.73490307 352.8106359 -65.79078989 349.54953798 -62.91210938 346.20703125 C-59.06306494 341.79130149 -54.95624092 337.66646589 -50.79101562 333.55078125 C-50.05947266 332.82375 -49.32792969 332.09671875 -48.57421875 331.34765625 C-46.79461738 329.57968626 -45.01270644 327.81411747 -43.22851562 326.05078125 C-60.88568531 329.27552616 -77.43474319 335.38035115 -93.98461914 342.23266602 C-104.39380254 346.53785995 -114.88451975 349.71730665 -125.81103516 352.44433594 C-127.95526037 352.98223287 -130.09018844 353.54582854 -132.22460938 354.12109375 C-138.24125845 355.66525108 -143.18074328 356.81013321 -149.22851562 355.05078125 C-151.79101562 353.05078125 -151.79101562 353.05078125 -153.22851562 350.05078125 C-153.22851562 343.3658436 -151.2620116 337.47516802 -149.16601562 331.1640625 C-147.23351488 325.43648272 -147.23351488 325.43648272 -148.29101562 319.80078125 C-150.81175071 312.40662501 -146.18218168 303.98255438 -143.17382812 297.22900391 C-141.60187421 293.6032508 -141.60187421 293.6032508 -141.48242188 289.71875 C-142.21308816 287.98497619 -142.21308816 287.98497619 -143.35351562 286.23828125 C-144.67962281 282.9230133 -144.03599285 280.46703103 -143.22851562 277.05078125 C-140.74128775 273.52430955 -137.32173912 273.01484041 -133.29101562 271.95703125 C-132.59122086 271.76925613 -131.89142609 271.58148102 -131.17042542 271.38801575 C-129.65359164 270.98121789 -128.13564057 270.57856848 -126.61672974 270.17959595 C-122.53108758 269.10384992 -118.45575842 267.99064861 -114.38085938 266.875 C-113.54022446 266.64507858 -112.69958954 266.41515717 -111.83348083 266.17826843 C-103.09109757 263.76859497 -94.4342528 261.10492519 -85.79101562 258.36328125 C-85.05391357 258.12957825 -84.31681152 257.89587524 -83.55737305 257.65509033 C-72.64171503 254.18638628 -61.75690783 250.62743016 -50.90771484 246.95605469 C-42.10748995 243.9825506 -33.29456969 241.04676342 -24.4765625 238.12646484 C-22.40696562 237.44105866 -20.33789656 236.7540552 -18.26953125 236.06494141 C-6.9460109 232.30422458 4.37469735 229.08776593 15.98486328 226.33276367 C23.43475817 224.51573102 30.53099183 222.15212734 37.62182617 219.234375 C49.32550609 214.54281937 59.1243492 219.26336347 70.14770508 223.78320312 C74.87406916 225.72012925 79.64176405 227.42829082 84.50195312 228.99609375 C87.25334374 230.27470901 88.82554531 231.73276153 90.77148438 234.05078125 C92.02148437 237.80078125 92.02148437 237.80078125 92.77148438 241.05078125 C93.84398437 241.13328125 94.91648437 241.21578125 96.02148438 241.30078125 C99.77148438 242.05078125 99.77148438 242.05078125 102.08398438 243.48828125 C106.40718573 250.05314256 106.09936598 257.58859655 104.77148438 265.05078125 C103.70164623 269.53007318 102.4402293 273.94406548 101.14648438 278.36328125 C100.78820557 279.60005615 100.42992676 280.83683105 100.06079102 282.11108398 C96.56543623 294.02183921 92.55717103 305.69776664 88.16601562 317.3046875 C80.28599875 338.19677422 73.54524303 359.54624872 67.39770508 381.00805664 C65.02546331 389.26446359 62.51865374 397.47597198 59.95898438 405.67578125 C59.7486557 406.34970917 59.53832703 407.02363708 59.32162476 407.71798706 C56.17799333 417.7671924 52.88564777 427.76103712 49.52148438 437.73828125 C46.19938572 447.59320962 43.1215973 457.47026675 40.33398438 467.48828125 C38.55590807 473.86843741 36.68732707 480.22129189 34.79763794 486.5690918 C34.2294971 488.48172562 33.66724947 490.39610696 33.10522461 492.31054688 C31.00473472 499.35272801 28.63075528 506.19635025 25.93432617 513.03173828 C24.26012616 517.3784016 22.86746626 521.80025917 21.45898438 526.23828125 C17.38213314 538.74115235 12.10532559 550.53060203 6.14648438 562.23828125 C1.60268483 571.1913259 -2.13093561 580.39554486 -5.10351562 589.98828125 C-7.10655922 596.16159592 -9.98331485 601.79858928 -12.93945312 607.55078125 C-15.55465761 612.64801915 -18.01992053 617.81409346 -20.47851562 622.98828125 C-21.09654053 624.28366821 -21.09654053 624.28366821 -21.72705078 625.60522461 C-24.01124565 630.41295946 -26.21111848 635.24182934 -28.28857422 640.14282227 C-29.77280837 643.15562483 -31.57415229 645.02840919 -34.22851562 647.05078125 C-37.85818581 648.26067131 -39.45613578 648.38430891 -42.97851562 646.86328125 C-45.25588152 645.0287365 -46.20282698 643.75486948 -47.22851562 641.05078125 C-47.88851563 641.05078125 -48.54851562 641.05078125 -49.22851562 641.05078125 C-49.53789062 642.07171875 -49.53789062 642.07171875 -49.85351562 643.11328125 C-52.07937154 647.86851888 -55.16870022 651.78320254 -59.66601562 654.55078125 C-63.22724727 655.24565572 -65.71853058 654.99095582 -69.22851562 654.05078125 C-73.51907284 650.49081427 -75.51450375 646.76559665 -77.35351562 641.61328125 C-79.28948179 636.34680756 -79.28948179 636.34680756 -81.75585938 631.3125 C-84.34696242 625.57358476 -85.10483454 619.33153701 -86.24609375 613.16796875 C-88.26717882 601.59337483 -88.26717882 601.59337483 -94.41601562 591.98828125 C-96.752395 589.49077226 -97.15658646 587.2305768 -97.40039062 583.8671875 C-97.02711146 577.7504993 -94.99298348 571.88756766 -93.22851562 566.05078125 C-92.61534401 564.01180094 -92.01006454 561.97041472 -91.41601562 559.92578125 C-91.16207031 559.09820313 -90.908125 558.270625 -90.64648438 557.41796875 C-89.95428233 553.49764687 -91.06486666 550.50408889 -92.40039062 546.8046875 C-93.46159325 541.994236 -92.71002602 538.68662168 -91.47851562 533.98828125 C-91.1459375 532.6590564 -91.1459375 532.6590564 -90.80664062 531.30297852 C-86.81911336 516.00577512 -81.89308497 500.50819775 -75.68554688 485.9765625 C-73.01389983 479.70734141 -70.93905858 473.30369352 -68.91601562 466.80078125 C-68.55701172 465.66253906 -68.19800781 464.52429688 -67.828125 463.3515625 C-66.95666787 460.58613854 -66.09021228 457.81925877 -65.22851562 455.05078125 C-65.91381348 455.48793457 -66.59911133 455.92508789 -67.30517578 456.37548828 C-71.86179186 459.27914503 -76.42084585 462.17807024 -81.00195312 465.04296875 C-88.11507958 469.49616687 -95.18873763 473.95302521 -102.04101562 478.80078125 C-107.44178778 482.59980349 -113.00933379 485.87305874 -118.76367188 489.08984375 C-123.22260744 491.61339015 -127.56495642 494.30623257 -131.91992188 497.00390625 C-204.81597912 542.10134899 -204.81597912 542.10134899 -241.42773438 542.25390625 C-242.49917191 542.25960632 -243.57060944 542.2653064 -244.67451477 542.2711792 C-246.93623884 542.28059675 -249.19797643 542.28715023 -251.4597168 542.29101562 C-254.88745581 542.30070056 -258.31458944 542.33174725 -261.7421875 542.36328125 C-263.94986627 542.36981459 -266.15754928 542.37506376 -268.36523438 542.37890625 C-269.37502853 542.39125305 -270.38482269 542.40359985 -271.42521667 542.4163208 C-281.66771106 542.38487573 -291.24361953 540.12682696 -300.35351562 535.42578125 C-301.02801758 535.08240723 -301.70251953 534.7390332 -302.39746094 534.38525391 C-310.49811986 530.08311056 -317.83576107 524.23727838 -322.22851562 516.05078125 C-322.22851562 515.39078125 -322.22851562 514.73078125 -322.22851562 514.05078125 C-323.80632812 514.14359375 -323.80632812 514.14359375 -325.41601562 514.23828125 C-329.4678647 514.03900998 -331.13740736 513.61198524 -334.22851562 511.05078125 C-336.49574292 506.67400201 -336.79685126 502.24469987 -337.22851562 497.41796875 C-337.30972656 496.58548615 -337.3909375 495.75300354 -337.47460938 494.89529419 C-337.73296556 492.23941124 -337.98153575 489.5827444 -338.22851562 486.92578125 C-338.55614486 483.44344087 -338.88929911 479.96169951 -339.22851562 476.48046875 C-339.30983734 475.63599686 -339.39115906 474.79152496 -339.47494507 473.92146301 C-339.89474746 469.73543567 -340.43467717 465.67072122 -341.33007812 461.5546875 C-342.81214148 454.06575442 -342.60050466 446.40724241 -342.59912109 438.80249023 C-342.60345635 436.14955533 -342.63976558 433.49834108 -342.67773438 430.84570312 C-342.78025829 415.05939995 -340.22441415 400.03847684 -335.22851562 385.05078125 C-336.15664062 384.61765625 -336.15664062 384.61765625 -337.10351562 384.17578125 C-339.52741442 382.89254071 -340.93898068 381.89910018 -341.84179688 379.25390625 C-342.28375316 376.73609466 -342.39775238 374.35763603 -342.41601562 371.80078125 C-342.43019531 370.90875 -342.444375 370.01671875 -342.45898438 369.09765625 C-342.16686589 365.23575083 -341.24295732 361.78777593 -340.22851562 358.05078125 C-340.94918213 358.22730225 -341.66984863 358.40382324 -342.41235352 358.58569336 C-345.70441148 359.38999546 -348.9976917 360.18917933 -352.29101562 360.98828125 C-353.42474609 361.26607422 -354.55847656 361.54386719 -355.7265625 361.83007812 C-361.21549534 363.15830386 -366.6150976 364.40715277 -372.22851562 365.05078125 C-372.11781738 365.75984619 -372.00711914 366.46891113 -371.89306641 367.19946289 C-371.37819394 370.5038083 -370.86585022 373.80854143 -370.35351562 377.11328125 C-370.17949219 378.22767578 -370.00546875 379.34207031 -369.82617188 380.49023438 C-369.28176079 384.00874304 -368.75117858 387.52897715 -368.22851562 391.05078125 C-367.97557739 392.74944336 -367.97557739 392.74944336 -367.7175293 394.48242188 C-366.12296645 405.75864784 -365.21703818 417.07881339 -364.29101562 428.42578125 C-363.94516721 432.60431784 -363.59682171 436.78264426 -363.24804688 440.9609375 C-363.11938736 442.50762367 -363.11938736 442.50762367 -362.98812866 444.08555603 C-362.45754533 450.42992103 -361.897885 456.770749 -361.30273438 463.109375 C-361.23172012 463.86873352 -361.16070587 464.62809204 -361.08753967 465.41046143 C-360.76187693 468.88219894 -360.43070502 472.3532267 -360.09204102 475.82373047 C-359.60497944 480.98145625 -359.16239821 486.05921483 -359.24023438 491.2421875 C-359.31638575 496.64065794 -358.57149089 501.84343694 -357.79101562 507.17578125 C-356.86187012 513.84921967 -356.05265105 520.44479891 -355.72851562 527.17578125 C-355.42543539 533.03533243 -354.78059063 538.74848515 -353.91601562 544.55078125 C-352.57698545 553.5604092 -351.31917402 562.57796658 -350.16601562 571.61328125 C-350.07978943 572.28813568 -349.99356323 572.96299011 -349.90472412 573.65829468 C-348.48343595 584.9060521 -347.5074737 596.13917633 -346.82397461 607.45727539 C-346.75766846 608.54645264 -346.6913623 609.63562988 -346.62304688 610.7578125 C-346.56995361 611.71147705 -346.51686035 612.6651416 -346.4621582 613.64770508 C-346.30476373 616.19360261 -346.30476373 616.19360261 -345.22851562 619.05078125 C-344.98007383 622.02568354 -344.99738823 625.00405014 -344.97851562 627.98828125 C-344.94757813 629.20547852 -344.94757813 629.20547852 -344.91601562 630.44726562 C-344.89280754 633.98359705 -344.89200924 636.39892606 -346.53320312 639.578125 C-348.22851562 641.05078125 -348.22851562 641.05078125 -351.60351562 641.67578125 C-355.47161906 641.00886686 -356.76165521 640.09948942 -359.18554688 637.046875 C-362.77663282 630.17404759 -363.00386334 622.31410136 -363.79101562 614.73828125 C-364.03891783 612.38765979 -364.29005172 610.03737616 -364.54492188 607.6875 C-364.7064978 606.13615356 -364.7064978 606.13615356 -364.87133789 604.5534668 C-365.09274053 602.05870034 -365.09274053 602.05870034 -366.22851562 600.05078125 C-366.82664062 600.54578125 -367.42476562 601.04078125 -368.04101562 601.55078125 C-370.22851562 603.05078125 -370.22851562 603.05078125 -373.22851562 603.05078125 C-373.19371094 604.07558594 -373.15890625 605.10039063 -373.12304688 606.15625 C-373.09489528 607.51691061 -373.06759659 608.87758905 -373.04101562 610.23828125 C-373.00331055 611.24858398 -373.00331055 611.24858398 -372.96484375 612.27929688 C-372.89915968 616.76770813 -373.49914351 619.477071 -376.22851562 623.05078125 C-378.47851563 624.98828125 -378.47851563 624.98828125 -381.22851562 626.05078125 C-384.72851563 625.30078125 -384.72851563 625.30078125 -388.22851562 624.05078125 C-392.04717536 623.02005358 -394.48712666 623.17747555 -398.29101562 624.17578125 C-407.02057391 625.9028944 -415.44363321 623.27449081 -422.93945312 618.66796875 C-434.15416475 610.74494723 -440.61878611 602.17817187 -443.11132812 588.5859375 C-443.49316293 586.36355445 -443.84129447 584.14991969 -444.1171875 581.91186523 C-444.78844164 576.91851998 -446.46044352 574.17505688 -449.22851562 570.05078125 C-450.61416592 566.46477632 -451.6986929 562.79772263 -452.79101562 559.11328125 C-455.01939728 551.5352458 -455.01939728 551.5352458 -457.86914062 544.1796875 C-463.43928321 531.35875585 -461.65044442 515.27049952 -460.89257812 501.62890625 C-459.993786 486.64052971 -459.993786 486.64052971 -462.43945312 471.91796875 C-464.13741626 465.7481423 -464.42066023 459.54730723 -464.58007812 453.19140625 C-464.61548706 451.91598969 -464.61548706 451.91598969 -464.65161133 450.61480713 C-464.72517093 447.84358099 -464.7904624 445.07226543 -464.85351562 442.30078125 C-464.87597351 441.35291748 -464.8984314 440.40505371 -464.92156982 439.4284668 C-465.22505633 426.12428974 -465.26037042 412.85256138 -464.85351562 399.55078125 C-464.83218567 398.83619751 -464.81085571 398.12161377 -464.78887939 397.38537598 C-464.53450328 389.24675738 -464.08480999 381.15051853 -463.22851562 373.05078125 C-463.92485107 373.17606201 -464.62118652 373.30134277 -465.33862305 373.43041992 C-471.94558389 374.61783117 -478.5541572 375.79574447 -485.16403198 376.96682739 C-489.72721918 377.77756542 -494.28500299 378.61485315 -498.84179688 379.4609375 C-512.6771798 381.99115785 -526.15314199 383.87053782 -540.22851562 384.05078125 C-540.39867187 384.62183594 -540.56882812 385.19289063 -540.74414062 385.78125 C-542.99071746 393.2977225 -542.99071746 393.2977225 -544.15795898 396.99414062 C-546.24259496 403.6105712 -548.07086891 410.24088378 -549.71166992 416.98022461 C-555.53750927 440.74491577 -566.02879387 459.55612012 -579.70458984 479.73486328 C-585.46123016 488.27961998 -591.16015947 497.15400244 -594.22851562 507.05078125 C-600.15060545 526.03250147 -608.07070474 544.29055585 -616.04101562 562.48828125 C-616.47236816 563.47489746 -616.9037207 564.46151367 -617.34814453 565.47802734 C-620.02883773 571.5365377 -622.8926724 577.4789027 -625.89086914 583.38671875 C-626.73475362 585.06740272 -627.55738252 586.75908791 -628.34936523 588.46484375 C-631.61082163 595.44291725 -631.61082163 595.44291725 -635.22851562 597.05078125 C-639.53046036 597.58307056 -642.5162348 597.52563513 -646.22851562 595.05078125 C-646.22851562 594.39078125 -646.22851562 593.73078125 -646.22851562 593.05078125 C-646.64359375 593.46328125 -647.05867187 593.87578125 -647.48632812 594.30078125 C-654.70786607 601.06908459 -665.00679144 609.00905102 -675.33007812 609.296875 C-679.03193347 608.81700486 -682.09846327 607.4816917 -684.43164062 604.52734375 C-687.54303182 601.97059185 -691.70683358 601.92768433 -695.60351562 601.41015625 C-700.64150458 600.58721782 -703.24036111 599.20286112 -706.22851562 595.05078125 C-707.71684177 588.99026672 -707.02541583 584.08930367 -705.47851562 578.11328125 C-705.26316162 577.26499756 -705.04780762 576.41671387 -704.82592773 575.54272461 C-701.6304761 563.86812787 -696.34356892 552.98135132 -691.22851562 542.05078125 C-687.22458336 533.48250011 -683.39150866 524.85515416 -679.67541504 516.15933228 C-675.27920519 505.88393446 -670.7894992 495.70440666 -665.61914062 485.7890625 C-664.15173274 483.06645373 -664.15173274 483.06645373 -663.22851562 480.05078125 C-663.69 480.39222168 -664.15148437 480.73366211 -664.62695312 481.08544922 C-679.12541956 491.77663556 -694.0664353 501.28602554 -709.61914062 510.3515625 C-712.93431552 512.28589624 -716.23314074 514.24565503 -719.52539062 516.21875 C-735.58890869 525.82993478 -751.86653479 534.51898236 -768.82128906 542.4465332 C-774.67492974 545.21739412 -780.09181528 548.35038415 -785.54101562 551.85546875 C-794.3450621 557.28394984 -803.9504394 561.50441301 -813.22851562 566.05078125 C-815.52773145 567.17941339 -817.82619125 568.30941463 -820.12182617 569.4453125 C-821.94422214 570.34696856 -823.76981479 571.24215601 -825.59570312 572.13671875 C-828.48501414 573.6086089 -831.24667408 575.24603497 -834.01757812 576.9296875 C-839.14791074 580.0422771 -844.40104965 582.85511755 -849.72851562 585.61328125 C-851.03755859 586.29680664 -851.03755859 586.29680664 -852.37304688 586.99414062 C-854.98701781 588.35534179 -857.60606116 589.70600239 -860.22851562 591.05078125 C-861.06817871 591.48156982 -861.9078418 591.9123584 -862.77294922 592.35620117 C-867.58727538 594.79707671 -872.44442716 597.05121423 -877.40356445 599.1809082 C-885.34437458 602.60807797 -892.69729766 606.36098428 -899.92700195 611.09936523 C-907.54147908 616.03040149 -915.61736957 620.0629922 -923.68554688 624.19140625 C-939.86757497 632.48302395 -955.94885623 641.28186679 -970.9753418 651.53540039 C-979.28836748 657.18213475 -987.98477399 662.00057124 -997.04101562 666.36328125 C-1003.32353022 669.44473858 -1009.07907344 673.08166172 -1014.91577148 676.93066406 C-1020.92672907 680.88779305 -1027.02609073 684.55568525 -1033.34277344 688.01318359 C-1034.65388872 688.73460254 -1035.96021946 689.46475771 -1037.26269531 690.20166016 C-1051.88794833 698.46622621 -1067.29649551 704.74010788 -1083.22851562 710.05078125 C-1084.03064191 711.92465341 -1084.03064191 711.92465341 -1084.41601562 714.11328125 C-1084.57457031 714.84675781 -1084.733125 715.58023438 -1084.89648438 716.3359375 C-1085.00605469 716.90183594 -1085.115625 717.46773437 -1085.22851562 718.05078125 C-1085.88851563 718.05078125 -1086.54851562 718.05078125 -1087.22851562 718.05078125 C-1087.55851562 719.04078125 -1087.88851563 720.03078125 -1088.22851562 721.05078125 C-1090.07617187 722.4375 -1090.07617187 722.4375 -1092.29101562 723.73828125 C-1093.39123047 724.39376953 -1093.39123047 724.39376953 -1094.51367188 725.0625 C-1095.07957031 725.38863281 -1095.64546875 725.71476563 -1096.22851562 726.05078125 C-1095.56851562 726.87578125 -1094.90851563 727.70078125 -1094.22851562 728.55078125 C-1091.59116737 732.54934151 -1091.55323391 735.32380921 -1092.22851562 740.05078125 C-1095.85780876 744.68628377 -1099.50215665 746.12562172 -1105.10351562 747.23828125 C-1105.85745605 747.40279785 -1106.61139648 747.56731445 -1107.38818359 747.73681641 C-1112.024657 748.71358238 -1116.64347724 749.39246973 -1121.35351562 749.92578125 C-1130.06835717 750.95435697 -1138.39390784 753.3085119 -1146.84570312 755.61328125 C-1154.64241244 757.71250143 -1161.74522916 759.38522929 -1169.85351562 759.23828125 C-1171.01584717 759.22535034 -1171.01584717 759.22535034 -1172.20166016 759.2121582 C-1174.54478584 759.17643836 -1176.88612665 759.11902566 -1179.22851562 759.05078125 C-1179.91880859 759.03144531 -1180.60910156 759.01210938 -1181.3203125 758.9921875 C-1191.41220154 758.65479888 -1200.91863113 757.29615865 -1210.29101562 753.42578125 C-1213.52263995 752.1142015 -1216.43966211 751.78253815 -1219.91601562 751.55078125 C-1224.08731376 751.25035535 -1227.01103083 750.95689655 -1230.22851562 748.05078125 C-1234.06924287 739.52407019 -1236.05734513 732.03647498 -1233.22851562 723.05078125 C-1233.88851563 722.39078125 -1234.54851562 721.73078125 -1235.22851562 721.05078125 C-1236.25246203 717.5851165 -1236.39559479 715.57429598 -1235.29101562 712.11328125 C-1232.50171629 707.97159436 -1229.10822504 705.15318509 -1225.22851562 702.05078125 C-1224.54660156 701.49519531 -1223.8646875 700.93960938 -1223.16210938 700.3671875 C-1218.32422491 696.50935329 -1213.28473394 692.96719239 -1208.18481445 689.46850586 C-1198.88320294 683.1590941 -1198.88320294 683.1590941 -1190.07617188 676.1953125 C-1185.86312729 673.02252584 -1181.27668109 670.59780976 -1176.66601562 668.05078125 C-1166.501207 662.37403583 -1156.48736613 656.48455033 -1146.53344727 650.44726562 C-1139.79793273 646.36643275 -1133.0417783 642.33662749 -1126.19335938 638.44750977 C-1125.57976562 638.09873779 -1124.96617188 637.74996582 -1124.33398438 637.390625 C-1123.6873584 637.02308105 -1123.04073242 636.65553711 -1122.37451172 636.27685547 C-1119.96272879 634.89892898 -1117.55835801 633.50854069 -1115.15429688 632.1171875 C-1099.63879137 623.15921587 -1099.63879137 623.15921587 -1092.04101562 619.48828125 C-1086.60449308 616.84400815 -1081.48763982 613.85368695 -1076.35351562 610.67578125 C-1070.11995504 606.83192816 -1070.11995504 606.83192816 -1067.22851562 605.05078125 C-1066.52903809 604.61878418 -1065.82956055 604.18678711 -1065.10888672 603.74169922 C-1056.7389102 598.62351125 -1049.34816442 595.23532704 -1039.75195312 592.9921875 C-1031.67691143 590.83466527 -1024.78675073 586.43706609 -1017.79101562 581.98828125 C-1013.63602781 579.37235993 -1009.73463939 577.35829412 -1005.10351562 575.73828125 C-990.05543016 570.29921422 -976.89137343 560.61330123 -964.01074219 551.33007812 C-955.43548187 545.17468578 -946.27897184 540.46661419 -936.90625 535.6640625 C-931.25128394 532.7326681 -925.83554156 529.68331473 -920.60351562 526.05078125 C-907.1211827 516.6984937 -892.5363626 509.13997377 -877.97460938 501.62817383 C-863.17018041 493.95998909 -848.68285755 485.68798567 -834.48242188 476.953125 C-832.14487529 475.58651613 -829.88577445 474.382754 -827.45507812 473.21875 C-822.37015973 470.7167245 -817.73494862 467.58716738 -813.04101562 464.42578125 C-812.11482422 463.80550049 -811.18863281 463.18521973 -810.234375 462.54614258 C-804.0270513 458.35468298 -798.05504807 453.96480809 -792.17382812 449.33203125 C-787.02064178 445.3407039 -781.61997004 441.70971655 -776.22851562 438.05078125 C-760.68363109 427.49420711 -745.20655946 416.89262248 -730.51147461 405.16821289 C-725.77329872 401.41615132 -720.90455371 397.86427394 -715.97851562 394.36328125 C-715.23851318 393.833396 -714.49851074 393.30351074 -713.73608398 392.75756836 C-712.70366577 392.03065796 -712.70366577 392.03065796 -711.65039062 391.2890625 C-711.03776367 390.85634033 -710.42513672 390.42361816 -709.79394531 389.9777832 C-708.22851562 389.05078125 -708.22851562 389.05078125 -706.22851562 389.05078125 C-705.89851562 386.74078125 -705.56851563 384.43078125 -705.22851562 382.05078125 C-706.46859375 382.00179688 -707.70867188 381.9528125 -708.98632812 381.90234375 C-720.34526823 381.43219075 -731.69479017 380.82546909 -743.04101562 380.11328125 C-744.30896973 380.03867676 -745.57692383 379.96407227 -746.88330078 379.88720703 C-763.63813435 378.79928861 -763.63813435 378.79928861 -768.72851562 375.36328125 C-770.79012866 372.18496116 -771.16228224 369.82608426 -771.22851562 366.05078125 C-769.55379192 362.08433036 -767.97993686 360.86598507 -764.22851562 359.05078125 C-763.10335478 357.21793682 -763.10335478 357.21793682 -762.22851562 355.05078125 C-761.23947305 353.37758892 -760.24058963 351.71014378 -759.22851562 350.05078125 C-760.41179443 350.0257251 -761.59507324 350.00066895 -762.81420898 349.97485352 C-767.28921691 349.8792441 -771.76412353 349.77942674 -776.23901367 349.6784668 C-778.15988767 349.63568814 -780.08078599 349.59398562 -782.00170898 349.5534668 C-792.7965857 349.32498887 -803.55955544 348.97614316 -814.33520508 348.28930664 C-820.33784504 347.92155225 -826.34352236 347.696451 -832.35351562 347.48828125 C-833.55331055 347.44582275 -834.75310547 347.40336426 -835.98925781 347.35961914 C-844.4067401 347.07641519 -852.80685094 346.92187822 -861.22851562 347.05078125 C-861.2808989 347.70897858 -861.33328217 348.3671759 -861.38725281 349.0453186 C-861.97548308 356.00038688 -862.86671803 362.86557414 -863.93554688 369.76171875 C-864.10221359 370.85054352 -864.26888031 371.93936829 -864.44059753 373.06118774 C-864.79279055 375.35566522 -865.14668274 377.64988248 -865.50219727 379.94384766 C-866.03409328 383.38104788 -866.55844205 386.81933835 -867.08203125 390.2578125 C-868.68688773 400.70976158 -870.38089866 411.12086937 -872.42773438 421.49609375 C-873.81121571 428.51642568 -874.82263436 435.3977374 -875.22851562 442.55078125 C-876.13663358 454.52229195 -878.34333326 469.16559888 -887.22851562 478.05078125 C-892.09832113 478.96961248 -896.65435873 479.04264446 -901.60351562 478.92578125 C-907.54309527 478.89132893 -912.82781936 479.44742105 -918.22851562 482.05078125 C-919.49695313 483.35015625 -919.49695313 483.35015625 -920.79101562 484.67578125 C-923.89986276 487.70491435 -925.71545517 487.513209 -929.89257812 487.7421875 C-933.14540788 488.17190916 -935.53352162 489.57101268 -938.38476562 491.12109375 C-941.99780963 492.94292526 -944.95814421 493.38349757 -948.85351562 492.36328125 C-952.68533574 490.24569645 -954.83682204 488.22586199 -956.22851562 484.05078125 C-956.45810632 480.98957193 -956.60915416 477.92970115 -956.75195312 474.86328125 C-957.28721558 471.70435531 -957.93610989 471.11982437 -960.22851562 469.05078125 C-963.04178556 460.49821085 -960.92293634 450.97460156 -959.06054688 442.44921875 C-958.82924072 441.35333435 -958.59793457 440.25744995 -958.35961914 439.12835693 C-957.60014855 435.55780426 -956.8219547 431.99169544 -956.04101562 428.42578125 C-955.77751312 427.20566345 -955.51401062 425.98554565 -955.24252319 424.72845459 C-950.39216943 402.30979682 -944.79042012 380.12074756 -938.74804688 357.99609375 C-938.50691162 357.1123407 -938.26577637 356.22858765 -938.01733398 355.3180542 C-936.35231388 349.29837776 -936.35231388 349.29837776 -935.22851562 347.05078125 C-935.77999771 347.12315002 -936.3314798 347.1955188 -936.89967346 347.27008057 C-942.20702442 347.92012269 -947.35202277 348.16297142 -952.69335938 348.03515625 C-953.5000708 348.01965729 -954.30678223 348.00415833 -955.13793945 347.9881897 C-957.81418636 347.93317192 -960.49003888 347.86759722 -963.16601562 347.80078125 C-964.09616486 347.77977356 -965.02631409 347.75876587 -965.98464966 347.73712158 C-986.2418877 347.27055477 -1006.46579585 346.18297848 -1026.69116211 344.97949219 C-1028.49278809 344.87705704 -1028.49278809 344.87705704 -1030.33081055 344.77255249 C-1032.56650649 344.64541049 -1034.80183884 344.51159486 -1037.03662109 344.36929321 C-1043.58880433 344.00349275 -1049.92449925 344.20410398 -1056.46057129 344.80065918 C-1067.46287808 345.79486984 -1081.37182507 346.7131354 -1091.22851562 341.05078125 C-1094.29094629 338.0904316 -1094.97074989 335.26095489 -1095.22851562 331.05078125 C-1094.45034905 328.53670461 -1093.54180495 326.52941772 -1092.10351562 324.33203125 C-1090.84671095 321.05536193 -1091.46838956 318.61153762 -1092.04101562 315.17578125 C-1092.32912109 313.38527344 -1092.32912109 313.38527344 -1092.62304688 311.55859375 C-1093.01209733 309.30461112 -1093.42185714 307.05405168 -1093.85742188 304.80859375 C-1094.3882819 300.86346559 -1093.30157757 298.31120065 -1091.22851562 295.05078125 C-1085.79628271 287.96028776 -1079.6926514 282.85388637 -1072.22851562 278.05078125 C-1070.89046875 277.13232422 -1070.89046875 277.13232422 -1069.52539062 276.1953125 C-1042.69730083 257.83346416 -1012.69205449 244.15915933 -982.70288086 231.84033203 C-978.00992527 229.88404649 -973.54681765 227.70540659 -969.10351562 225.23828125 C-953.2117171 216.50031875 -936.94500846 209.4799392 -919.13867188 205.85546875 C-915.45859397 205.2732139 -915.45859397 205.2732139 -913.22851562 204.05078125 C-912.62948169 202.01966673 -912.62948169 202.01966673 -912.28637695 199.51977539 C-912.12868835 198.54730362 -911.97099976 197.57483185 -911.80853271 196.57289124 C-911.64419739 195.5046965 -911.47986206 194.43650177 -911.31054688 193.3359375 C-911.13243469 192.22991684 -910.95432251 191.12389618 -910.77081299 189.98435974 C-910.38721678 187.60194394 -910.00721859 185.21894666 -909.63040161 182.83544922 C-906.64941423 164.00952527 -903.5068275 145.25621669 -899.43676758 126.63305664 C-897.66272799 118.46183792 -896.30002064 110.34364318 -895.22851562 102.05078125 C-896.05134033 101.93839111 -896.87416504 101.82600098 -897.72192383 101.71020508 C-904.82591113 100.72228015 -911.6934847 99.28509266 -918.65283203 97.58081055 C-923.59204425 96.38909798 -928.52822846 95.43610059 -933.54101562 94.61328125 C-940.75302054 93.41925181 -947.77348215 91.71974102 -954.84790039 89.88916016 C-961.32331457 88.23008179 -967.80026503 86.9601252 -974.38085938 85.80078125 C-977.66629296 85.16037186 -980.84396609 84.39206044 -984.07055664 83.52050781 C-990.86180953 81.68617114 -997.5409434 80.48271546 -1004.54101562 79.73828125 C-1005.35997314 79.6498999 -1006.17893066 79.56151855 -1007.02270508 79.47045898 C-1010.44187975 79.14542322 -1012.93499436 78.95294083 -1016.22851562 80.05078125 C-1025.97940561 80.88035488 -1034.96814723 79.5310634 -1044.50634766 77.61889648 C-1052.60811632 76.04025842 -1060.67149666 75.26084774 -1068.90429688 74.73486328 C-1070.27714844 74.63987549 -1070.27714844 74.63987549 -1071.67773438 74.54296875 C-1072.48557373 74.4951123 -1073.29341309 74.44725586 -1074.12573242 74.39794922 C-1076.22851562 74.05078125 -1076.22851562 74.05078125 -1079.22851562 72.05078125 C-1079.59179688 70.17578125 -1079.59179688 70.17578125 -1079.54101562 68.05078125 C-1079.53714844 67.34953125 -1079.53328125 66.64828125 -1079.52929688 65.92578125 C-1079.22851562 64.05078125 -1079.22851562 64.05078125 -1077.22851562 62.05078125 C-1074.62695312 61.63671875 -1074.62695312 61.63671875 -1071.60351562 61.42578125 C-1070.09917969 61.31363281 -1070.09917969 61.31363281 -1068.56445312 61.19921875 C-1067.79359375 61.15023437 -1067.02273438 61.10125 -1066.22851562 61.05078125 C-1066.86789062 60.26703125 -1067.50726562 59.48328125 -1068.16601562 58.67578125 C-1071.44081298 54.50785734 -1071.66647402 51.25414408 -1071.22851562 46.05078125 C-1070.29101562 43.98828125 -1070.29101562 43.98828125 -1069.22851562 42.05078125 C-1069.07382813 40.31828125 -1069.07382813 40.31828125 -1068.91601562 38.55078125 C-1068.22851562 35.05078125 -1068.22851562 35.05078125 -1065.91601562 32.67578125 C-1063.57432093 31.25987283 -1061.90744417 30.44765955 -1059.22851562 30.05078125 C-1059.22851562 29.39078125 -1059.22851562 28.73078125 -1059.22851562 28.05078125 C-1053.20272269 26.3029636 -1047.85142159 25.76799002 -1041.59570312 25.8203125 C-1040.23763298 25.82011612 -1040.23763298 25.82011612 -1038.85212708 25.81991577 C-1035.93576058 25.82306828 -1033.01980131 25.84185445 -1030.10351562 25.86328125 C-1028.08113626 25.8734923 -1026.0587567 25.88366469 -1024.03637695 25.89379883 C-1016.42236677 25.94054136 -1008.80912045 26.02259374 -1001.19580078 26.13525391 C-999.85094101 26.15514877 -999.85094101 26.15514877 -998.47891235 26.17544556 C-978.52352183 26.66470085 -958.40492741 30.25623789 -938.68164062 33.15625 C-933.12035849 33.95780001 -927.57908405 34.50049046 -921.97851562 34.92578125 C-909.29779521 35.97326984 -896.77723558 37.98488846 -884.22851562 40.05078125 C-883.84324707 39.20193359 -883.84324707 39.20193359 -883.45019531 38.3359375 C-883.10375977 37.60246094 -882.75732422 36.86898437 -882.40039062 36.11328125 C-882.06104492 35.38238281 -881.72169922 34.65148438 -881.37207031 33.8984375 C-880.22851562 32.05078125 -880.22851562 32.05078125 -877.47851562 31.05078125 C-876.73601562 31.05078125 -875.99351562 31.05078125 -875.22851562 31.05078125 C-875.45023438 30.50550781 -875.67195313 29.96023437 -875.90039062 29.3984375 C-876.36887291 26.0465583 -875.13855857 24.3933564 -873.47851562 21.48828125 C-872.94742187 20.53824219 -872.41632813 19.58820312 -871.86914062 18.609375 C-869.83330152 15.43443544 -868.41549937 13.48809105 -864.85351562 12.17578125 C-861.45281689 12.01384322 -859.97144041 13.12332059 -857.22851562 15.05078125 C-856.56851562 15.38078125 -855.90851563 15.71078125 -855.22851562 16.05078125 C-854.87789062 15.18453125 -854.52726562 14.31828125 -854.16601562 13.42578125 C-851.80833584 9.31885518 -849.30068183 6.49743255 -845.22851562 4.05078125 C-840.88510867 3.30191798 -839.08207473 3.5126679 -835.35351562 5.86328125 C-833.22851562 8.05078125 -833.22851562 8.05078125 -832.22851562 11.05078125 C-831.43058594 11.64503906 -830.63265625 12.23929688 -829.81054688 12.8515625 C-824.8462394 17.0798607 -823.63779433 24.31042864 -822.94726562 30.62109375 C-822.87954321 35.48017677 -823.61012128 40.23937155 -824.22851562 45.05078125 C-822.91367187 44.99277344 -821.59882812 44.93476562 -820.24414062 44.875 C-802.6597569 44.36324752 -785.80490725 46.72426275 -768.48681641 49.39697266 C-764.74623365 49.9742379 -761.00231406 50.52447159 -757.25585938 51.0625 C-750.57478026 52.02464394 -743.90076356 53.0292831 -737.22851562 54.05078125 C-736.48998352 54.16377563 -735.75145142 54.27677002 -734.99053955 54.39318848 C-729.9728898 55.16185736 -724.9563837 55.93759913 -719.94085693 56.72000122 C-718.28679271 56.97764531 -716.63254244 57.23409849 -714.97808838 57.48922729 C-705.98751957 58.87807147 -697.09506132 60.42980687 -688.21166992 62.40112305 C-684.49957975 63.20952569 -680.7941791 63.83659962 -677.04101562 64.42578125 C-618.76735918 73.90948244 -618.76735918 73.90948244 -610.49023438 82.94921875 C-608.41399388 86.40747691 -608.97549266 89.0656695 -609.22851562 93.05078125 C-609.55851563 94.04078125 -609.88851562 95.03078125 -610.22851562 96.05078125 C-609.16588124 98.23202775 -609.16588124 98.23202775 -607.54101562 100.42578125 C-606.70957031 101.62654297 -606.70957031 101.62654297 -605.86132812 102.8515625 C-604.19143305 105.17375868 -604.19143305 105.17375868 -601.91601562 107.61328125 C-599.08088195 111.70847434 -599.0085369 115.52102588 -599.42382812 120.296875 C-600.67953853 126.36614195 -603.87003937 130.5518658 -607.79101562 135.17578125 C-608.50487427 136.01810303 -608.50487427 136.01810303 -609.2331543 136.87744141 C-616.88580892 145.45848354 -625.88195185 151.27989716 -636.04101562 156.48828125 C-643.84333819 160.58805789 -651.05671129 164.82823841 -658.18164062 170.01171875 C-662.27415338 172.75055421 -666.58083718 174.83367273 -671.01000977 176.96655273 C-676.03528313 179.40350218 -680.86607406 182.07150863 -685.66601562 184.92578125 C-686.37516113 185.34738525 -687.08430664 185.76898926 -687.81494141 186.20336914 C-690.63489751 187.88721631 -693.44909633 189.58047107 -696.26123047 191.27734375 C-714.98376485 202.55543101 -734.30646826 212.2364156 -754.28613281 221.07188416 C-770.18619808 228.10612237 -785.79428065 235.64613023 -801.09228516 243.90625 C-803.38887936 245.13669956 -805.69574828 246.34590887 -808.00585938 247.55078125 C-823.93625551 255.74789036 -823.93625551 255.74789036 -839.22851562 265.05078125 C-837.87931282 265.04411942 -837.87931282 265.04411942 -836.50285339 265.037323 C-827.84595947 264.99652763 -819.18909974 264.9664437 -810.53213024 264.94715691 C-806.0860743 264.93690687 -801.64010047 264.92311255 -797.1940918 264.89990234 C-766.99516805 264.7467174 -736.95075191 265.51180143 -706.91601562 268.92578125 C-705.33539151 269.09990573 -703.75474301 269.27380902 -702.17407227 269.44750977 C-697.52338518 269.96382063 -692.87580955 270.50490417 -688.22851562 271.05078125 C-687.51832275 271.13305969 -686.80812988 271.21533813 -686.07641602 271.30010986 C-670.2498254 273.13421685 -654.85542029 275.50996862 -639.42871094 279.51318359 C-636.20078717 280.30189732 -632.93848042 280.85467658 -629.66601562 281.42578125 C-623.54104986 282.62238052 -617.7016413 284.3640274 -611.79101562 286.36328125 C-610.96206787 286.6351123 -610.13312012 286.90694336 -609.27905273 287.18701172 C-602.27675287 289.65077082 -596.09069345 292.90835617 -592.22851562 299.42578125 C-591.89851562 300.29203125 -591.56851563 301.15828125 -591.22851562 302.05078125 C-586.70940814 298.08446979 -584.28743238 292.32815737 -581.40380859 287.14111328 C-580.21289441 285.02299794 -578.9917197 282.92489762 -577.76367188 280.828125 C-572.78850547 272.24165575 -568.68806962 263.6482062 -565.12695312 254.38574219 C-559.10347876 238.79878785 -550.70243832 224.45578555 -542.10351562 210.17578125 C-535.69775842 199.53304487 -529.37253916 188.84719593 -523.22851562 178.05078125 C-522.68195312 177.09075195 -522.13539063 176.13072266 -521.57226562 175.14160156 C-514.95725958 163.38294192 -509.84699765 151.7287621 -505.66088867 138.90527344 C-503.02457194 130.97090013 -499.8676347 123.4519315 -496.22851562 115.92578125 C-495.76638672 114.96816895 -495.30425781 114.01055664 -494.828125 113.02392578 C-491.67100257 106.63872208 -488.2209732 100.44498134 -484.70440674 94.25422668 C-480.58846477 86.97903015 -476.7738058 79.55934446 -472.97851562 72.11328125 C-471.50325725 69.22589438 -470.02639188 66.33933274 -468.54882812 63.453125 C-468.1846579 62.74111938 -467.82048767 62.02911377 -467.44528198 61.29553223 C-465.11843991 56.75603215 -462.74929869 52.24145631 -460.34570312 47.7421875 C-459.4567334 46.06854126 -459.4567334 46.06854126 -458.54980469 44.36108398 C-457.45906209 42.31288038 -456.36010657 40.26901808 -455.25097656 38.23071289 C-452.31067724 32.68643881 -450.29764281 27.45425032 -448.91894531 21.32226562 C-448.22851562 19.05078125 -448.22851562 19.05078125 -445.85351562 16.42578125 C-443.03682383 14.95037126 -441.41456445 14.12487541 -438.22851562 14.05078125 C-436.36894316 14.78132758 -434.51114946 15.51734726 -432.66992188 16.29296875 C-428.6174528 17.55085515 -424.47159203 17.50833393 -420.25585938 17.73046875 C-417.22851562 18.05078125 -417.22851562 18.05078125 -413.72851562 19.67578125 C-409.01606229 21.5271022 -405.26091434 20.78699009 -400.31445312 20.08203125 C-395.93843969 20.03771719 -393.83567373 21.78619199 -390.50585938 24.40625 C-388.78999998 26.61535338 -388.39685494 28.64264878 -387.79101562 31.36328125 C-386.62662392 36.0086555 -385.01830618 39.12763828 -382.22851562 43.05078125 C-378.47413967 50.58524024 -378.82649597 58.12024104 -378.90039062 66.34375 C-378.9034605 67.85467845 -378.90532725 69.36560975 -378.90606689 70.87654114 C-378.91066088 74.0497215 -378.92502072 77.22264691 -378.94726562 80.39575195 C-378.97504402 84.36886195 -378.98636091 88.34176976 -378.99105263 92.31496716 C-379.01105761 107.46985268 -379.18721527 122.59446734 -379.79882812 137.73828125 C-380.21621836 148.19452363 -380.14596403 158.43280772 -379.35351562 168.86328125 C-379.25970751 170.23363152 -379.16727058 171.60407632 -379.07617188 172.97460938 C-378.72557308 178.23536918 -378.342506 183.49390545 -377.95750427 188.75224304 C-377.29961258 198.34585937 -377.09479915 207.87453903 -377.13085938 217.48828125 C-377.1327317 218.98998975 -377.13415174 220.49169887 -377.13514709 221.9934082 C-377.13890826 225.8861672 -377.14868122 229.77888701 -377.15985107 233.67163086 C-377.17020544 237.6678006 -377.1746743 241.66397687 -377.1796875 245.66015625 C-377.19031142 253.45704884 -377.20730756 261.25390949 -377.22851562 269.05078125 C-376.34464172 268.84613754 -375.46076782 268.64149384 -374.55010986 268.4306488 C-373.38598572 268.16148148 -372.22186157 267.89231415 -371.02246094 267.61499023 C-369.87046204 267.34847153 -368.71846313 267.08195282 -367.53155518 266.80735779 C-353.67883333 263.63432756 -339.76655916 261.49740245 -325.66601562 259.80078125 C-324.56175232 259.66749924 -324.56175232 259.66749924 -323.43518066 259.53152466 C-311.06785703 258.05078125 -311.06785703 258.05078125 -306.22851562 258.05078125 C-306.07576172 257.02017578 -306.07576172 257.02017578 -305.91992188 255.96875 C-305.09397696 252.48298248 -303.72449187 249.5902856 -302.16601562 246.36328125 C-301.52273646 245.01236175 -300.88086526 243.66077112 -300.24023438 242.30859375 C-299.74015869 241.25526855 -299.74015869 241.25526855 -299.22998047 240.18066406 C-296.10217595 233.52855128 -293.16406275 226.78936893 -290.22851562 220.05078125 C-289.63345215 218.68542236 -289.63345215 218.68542236 -289.02636719 217.29248047 C-284.41376196 206.65915508 -279.92814659 195.99594108 -275.83398438 185.15234375 C-269.36152547 168.03110058 -262.61975883 151.82667683 -253.22851562 136.05078125 C-252.03336432 133.99490783 -250.84076307 131.93755037 -249.65039062 129.87890625 C-247.25450296 125.74356466 -244.84621006 121.61597048 -242.42382812 117.49609375 C-239.8722658 113.15500788 -237.34591201 108.80106866 -234.85351562 104.42578125 C-234.24507812 103.36101562 -233.63664063 102.29625 -233.00976562 101.19921875 C-231.76749716 99.00345475 -230.53939909 96.79963935 -229.32226562 94.58984375 C-222.21493582 81.75302726 -213.48223182 70.22883866 -204.48291016 58.67285156 C-203.20766189 57.02381508 -201.94859469 55.36352844 -200.69335938 53.69921875 C-196.17996498 47.73039611 -191.51480751 42.00865219 -186.43164062 36.5078125 C-184.14330755 33.95575309 -182.03463726 31.30728394 -179.91601562 28.61328125 C-170.36848534 16.9130376 -158.72338464 8.33997508 -146.22851562 0.05078125 C-145.60074219 -0.36977539 -144.97296875 -0.79033203 -144.32617188 -1.22363281 C-103.28963806 -28.38275815 -39.5378289 -31.9924417 0 0 Z M-829.22851562 117.05078125 C-831.16217703 127.4368868 -832.84991808 137.85289349 -834.41601562 148.30078125 C-834.68430176 150.06772339 -834.68430176 150.06772339 -834.95800781 151.87036133 C-835.12333008 152.98693115 -835.28865234 154.10350098 -835.45898438 155.25390625 C-835.60746826 156.25067383 -835.75595215 157.24744141 -835.90893555 158.27441406 C-836.21080695 160.89693632 -836.28783935 163.41403722 -836.22851562 166.05078125 C-812.10488878 155.01115541 -788.65663595 142.48265214 -765.22851562 130.05078125 C-767.47617428 127.80312259 -768.23841768 127.66794748 -771.27246094 127.13696289 C-772.10803528 126.98663101 -772.94360962 126.83629913 -773.80450439 126.68141174 C-774.71270935 126.52615524 -775.62091431 126.37089874 -776.55664062 126.2109375 C-777.49723328 126.04331406 -778.43782593 125.87569061 -779.40692139 125.70298767 C-782.42951977 125.16561083 -785.45386323 124.63896256 -788.47851562 124.11328125 C-792.42186726 123.42027917 -796.36437945 122.72261335 -800.30664062 122.0234375 C-801.25817017 121.8557486 -802.20969971 121.68805969 -803.19006348 121.51528931 C-809.69334507 120.35839435 -816.1381282 119.04972409 -822.57519531 117.56420898 C-825.4326178 116.92412807 -825.4326178 116.92412807 -829.22851562 117.05078125 Z M-477.22851562 257.05078125 C-487.58235964 271.31416568 -487.58235964 271.31416568 -495.22851562 287.05078125 C-492.78953923 286.76878398 -490.35280629 286.4756251 -487.91601562 286.17578125 C-487.22572266 286.09714844 -486.53542969 286.01851563 -485.82421875 285.9375 C-482.27212092 285.49134278 -480.25881272 285.07097932 -477.22851562 283.05078125 C-476.71791062 280.34073622 -476.71791062 280.34073622 -476.71679688 277.16796875 C-476.68134766 276.00136719 -476.64589844 274.83476562 -476.609375 273.6328125 C-476.58681641 272.40949219 -476.56425781 271.18617188 -476.54101562 269.92578125 C-476.50685547 268.69472656 -476.47269531 267.46367187 -476.4375 266.1953125 C-476.35479998 263.14722615 -476.28572135 260.09943554 -476.22851562 257.05078125 C-476.55851563 257.05078125 -476.88851562 257.05078125 -477.22851562 257.05078125 Z " fill="#000000" transform="translate(1236.228515625,21.94921875)"/>
<path d="M0 0 C3.65617878 2.61416783 4.00697135 6.4129113 4.875 10.5625 C6.22859967 16.52492836 7.95782437 21.70122589 10.94921875 27.08203125 C13.54147966 31.81363016 13.24434779 36.77193885 13.25390625 42.01953125 C13.39409004 45.98156779 13.8270541 47.79042024 16.37890625 50.8828125 C18.12094397 52.28994282 19.89101496 53.6630809 21.6875 55 C24.33213135 57.28724874 24.9957057 58.68438723 26 62 C25.77018241 67.6747267 24.08523165 72.97158028 21.9375 78.1875 C20.15778085 82.76670438 19.72646261 86.72058903 19.5625 91.625 C19.08623869 104.46731782 14.71791494 115.56988989 9.5 127.1875 C2.77992343 142.39361386 -0.17331064 156.82710642 -0.375 173.4375 C-0.55277479 187.09996062 -3.28676451 199.57866907 -6.53353882 212.78929138 C-8.47869349 220.80272155 -9.99454052 228.89447778 -11.5 237 C-11.64150482 237.75842194 -11.78300964 238.51684387 -11.92880249 239.29824829 C-12.80902991 244.02284659 -13.67754303 248.74951856 -14.53985596 253.47741699 C-15.02134085 256.11699397 -15.50452571 258.75625662 -15.98779297 261.39550781 C-16.97704028 266.80425503 -17.95859692 272.21437229 -18.9375 277.625 C-19.0931543 278.48222656 -19.24880859 279.33945312 -19.40917969 280.22265625 C-19.84727466 282.64011851 -20.28168592 285.05821135 -20.71484375 287.4765625 C-20.84571884 288.19663483 -20.97659393 288.91670715 -21.11143494 289.65859985 C-21.61452558 292.48761135 -22 295.11939469 -22 298 C-21.70754395 297.44014404 -21.41508789 296.88028809 -21.11376953 296.3034668 C-19.78591523 293.76389935 -18.45548744 291.22568886 -17.125 288.6875 C-16.66480469 287.80642578 -16.20460938 286.92535156 -15.73046875 286.01757812 C-15.28574219 285.17001953 -14.84101562 284.32246094 -14.3828125 283.44921875 C-13.97434082 282.66893311 -13.56586914 281.88864746 -13.14501953 281.0847168 C-12 279 -12 279 -10 276 C-9.45660194 272.48947602 -9.11050399 268.97973148 -8.7578125 265.4453125 C-7.64351488 260.37927898 -4.63721501 257.49172641 -1 254 C-0.175 253.13375 0.65 252.2675 1.5 251.375 C4.69055748 248.3439704 6.86393312 247.86651569 11.09765625 247.97265625 C11.89518311 247.98619141 12.69270996 247.99972656 13.5144043 248.01367188 C14.35527588 248.02978516 15.19614746 248.04589844 16.0625 248.0625 C22.99978733 248.14111691 29.24874496 247.77082099 36 246 C41.36043691 230.44967596 44.55279763 214.59041045 47.0625 198.375 C50.00048125 179.42894883 54.01604514 161.22744144 60 143 C62.65872065 134.88699215 64.82503935 126.82451765 66.42993164 118.44189453 C67.66473996 112.39316261 69.56658951 106.5119076 73.9375 102 C76.55588175 100.73048157 78.12125368 100.56818805 81 101 C82.36120294 101.96171947 83.69908995 102.95816949 85 104 C85.72445313 103.10796875 86.44890625 102.2159375 87.1953125 101.296875 C88.1714571 100.11423827 89.1480432 98.93196587 90.125 97.75 C90.8365625 96.87021484 90.8365625 96.87021484 91.5625 95.97265625 C95.34154885 91.42758399 99.1792691 87.98112379 104.875 86 C109.24212769 86 112.4793895 87.4486264 116 90 C119.66066784 93.7597834 120.62354286 96.64422861 121.25 101.8125 C121.39953125 102.97394531 121.5490625 104.13539062 121.703125 105.33203125 C121.80109375 106.21246094 121.8990625 107.09289062 122 108 C123.546875 107.9071875 123.546875 107.9071875 125.125 107.8125 C129.37099398 108.01795132 131.50212918 108.61508808 135 111 C139.15014432 116.78654326 138.49324611 123.36743974 138.4375 130.1875 C138.43210205 131.45271484 138.4267041 132.71792969 138.42114258 134.02148438 C138.29739945 141.7023623 137.57161611 148.67962904 135.64331055 156.09179688 C133.47583848 164.98732404 132.95746872 174.08406654 132.25 183.1875 C132.15300308 184.43237183 132.15300308 184.43237183 132.05404663 185.70239258 C131.68651384 190.46715688 131.33637982 195.23293989 131 200 C132.98830634 199.07297049 134.97658041 198.14587174 136.96484375 197.21875 C137.58514969 196.92956192 138.20545563 196.64037384 138.84455872 196.34242249 C142.26289697 194.74848527 145.68046135 193.15291953 149.09667969 191.55444336 C160.86395434 186.05021112 160.86395434 186.05021112 166.42578125 183.53515625 C177.91321451 178.31958319 187.39555124 171.62393162 197.18041992 163.73120117 C200.02044134 161.45700468 202.73257824 159.58302295 206 158 C206.268125 157.38125 206.53625 156.7625 206.8125 156.125 C208.17748112 153.6824022 209.07152297 153.27182096 211.5 152 C214.46861936 150.44471501 215.93413458 149.31602574 217 146 C216.45859375 145.75507813 215.9171875 145.51015625 215.359375 145.2578125 C205.30817829 139.89939306 196.82485885 131.69086463 189.6875 122.9375 C185.49721919 118.11261096 180.44362621 115.25244181 175 112 C171.90675989 110.0781602 168.82832929 108.13310939 165.75 106.1875 C164.93321777 105.67340576 164.11643555 105.15931152 163.27490234 104.62963867 C158.08547135 101.35380394 152.96154909 97.99546438 147.875 94.5625 C142.71112118 91.08919276 137.51354085 87.8855085 132 85 C130.85917969 84.38511719 129.71835938 83.77023438 128.54296875 83.13671875 C120.76517116 78.94528893 112.92134067 74.91443683 105 71 C102.74946632 69.876068 100.49949141 68.7510166 98.25 67.625 C97.07953125 67.03976563 95.9090625 66.45453125 94.703125 65.8515625 C92.15104167 64.57552083 89.59895833 63.29947917 87.046875 62.0234375 C86.38026855 61.69029541 85.71366211 61.35715332 85.02685547 61.01391602 C83.68160689 60.34096765 82.33687484 59.66698568 80.99267578 58.99194336 C77.65503277 57.31741927 74.31030711 55.6619141 70.9453125 54.04296875 C69.98044922 53.57407227 69.98044922 53.57407227 68.99609375 53.09570312 C67.23180227 52.23934035 65.46367365 51.39089591 63.6953125 50.54296875 C61 49 61 49 59 46 C58.65969907 42.98590605 58.43718398 40.90504025 59 38 C61.25 35.1875 61.25 35.1875 64 33 C64.598125 32.484375 65.19625 31.96875 65.8125 31.4375 C68.46645086 29.69347515 70.62372345 29.29632851 73.75 28.8125 C74.73484375 28.65394531 75.7196875 28.49539062 76.734375 28.33203125 C77.48203125 28.22246094 78.2296875 28.11289062 79 28 C79.12955078 27.11248047 79.12955078 27.11248047 79.26171875 26.20703125 C79.95949198 22.28285706 80.68796413 19.46302097 82.9375 16.125 C90.59183444 10.81382916 98.82332891 10.80242052 107.859375 11.02734375 C111.10333607 11.13852299 111.10333607 11.13852299 114.5 10 C122.6914058 7.65959834 131.76519186 7.94497134 139.52734375 11.5546875 C144.08979757 14.22152465 148.19919635 17.44113303 152.34326172 20.70849609 C157.78441519 24.95012619 163.40484807 28.96518228 169 33 C169.63953613 33.46196777 170.27907227 33.92393555 170.93798828 34.39990234 C179.92730917 40.8518602 189.15846752 46.45163811 198.87890625 51.73046875 C204.08791037 54.56948823 209.04099756 57.74878082 214 61 C215.15243251 61.72978412 216.30615969 62.45752642 217.4609375 63.18359375 C227.03655352 69.22008874 235.61770944 75.44280939 243.52075195 83.5859375 C245.8739574 85.87727137 248.29257856 87.8674099 250.8828125 89.8828125 C258.98095069 96.44488707 266.10318887 103.98571488 273.38427734 111.42529297 C280.20598397 118.38183697 286.96740472 125.10846135 294.65795898 131.11376953 C299.33071238 134.87710663 303.66784165 139.00176248 307 144 C310.06556598 144.73343428 310.06556598 144.73343428 313 145 C313 145.66 313 146.32 313 147 C313.66 147 314.32 147 315 147 C320.99319663 159.04457963 323.28453457 172.70336802 319.81640625 185.9453125 C317.21119262 192.50197456 311.78132999 198.06631155 306 202 C305.34 202 304.68 202 304 202 C303.75121094 202.556875 303.50242187 203.11375 303.24609375 203.6875 C300.58421285 208.62741691 296.62366257 212.74314155 293 217 C291.73929688 218.50240234 291.73929688 218.50240234 290.453125 220.03515625 C280.10844306 232.06354041 268.30498227 239.16391515 254.00805664 245.75415039 C247.21861362 248.88896396 240.6948709 252.31965034 234.1875 256 C223.16823775 262.16210055 211.72562793 267.04862321 200.03027344 271.77441406 C197.28701639 272.88391699 194.55258064 274.0122151 191.8203125 275.1484375 C181.51703528 279.39564518 171.07020649 283.11943745 160.51855469 286.70214844 C154.01499344 288.91887697 147.6162015 291.29264172 141.25 293.875 C132.81318791 297.26843936 124.18155252 300 115 300 C115.24202807 307.68439113 117.16413264 311.62787535 122 317.5 C122.58797363 318.24048584 123.17594727 318.98097168 123.78173828 319.74389648 C127.59937918 324.48442054 131.61404699 328.92011415 136.03515625 333.109375 C137.92521631 334.92804114 139.61751328 336.81265955 141.3125 338.8125 C144.3228884 342.33276857 147.56979496 345.57269867 150.875 348.8125 C155.44836601 353.31283397 159.61724349 357.97610037 163.57421875 363.0390625 C171.63137804 372.87372714 180.61978702 381.80605944 189.60107422 390.78637695 C191.8684588 393.05595248 194.12770323 395.33342616 196.38671875 397.61132812 C203.21549322 404.4660636 210.00766341 411.09949909 217.61767578 417.08764648 C222.20665529 420.7713395 226.36164297 424.92971801 230.5859375 429.01953125 C231.24851562 429.65246094 231.91109375 430.28539062 232.59375 430.9375 C233.17833984 431.50339844 233.76292969 432.06929688 234.36523438 432.65234375 C236.07168819 434.22358933 236.07168819 434.22358933 239 435 C239.24621094 434.19691406 239.49242187 433.39382813 239.74609375 432.56640625 C241.27116358 428.22874659 243.14478569 424.11310876 245.0625 419.9375 C249.87474753 409.36187371 254.46141433 398.6954309 259 388 C258.35973877 388.01571045 257.71947754 388.0314209 257.05981445 388.04760742 C254.14413369 388.11017115 251.22859445 388.14905808 248.3125 388.1875 C246.80139648 388.22520508 246.80139648 388.22520508 245.25976562 388.26367188 C235.86064869 388.35673244 235.86064869 388.35673244 232 385 C230.41506916 381.83013832 230.7059958 378.45967739 231 375 C232 372.5 232 372.5 233 371 C232.01 371.350625 231.02 371.70125 230 372.0625 C224.54071423 373.60654042 220.00462512 372.73245918 214.75 370.8125 C209.76434961 367.52650315 207.53921174 363.12734307 206.3203125 357.33203125 C205.26053983 349.61636926 205.30709156 343.15570153 208.921875 336.16796875 C210.39726486 333.20115217 211.27489998 330.12177522 212.19140625 326.9453125 C213.12240468 324.70551917 214.13409605 323.534706 216 322 C219.78803568 320.93157968 223.35746171 321.02270646 227.25 321.125 C238.12244737 321.21930871 248.84805651 318.67889409 259.4375 316.4375 C265.25252504 315.24692375 271.04058352 314.43988021 276.9375 313.8125 C278.10913696 313.68669556 278.10913696 313.68669556 279.30444336 313.55834961 C284.22647628 313.07093112 289.0543105 312.92685556 294 313 C294.11730469 312.27167969 294.23460937 311.54335938 294.35546875 310.79296875 C295.00812803 307.96477855 295.94986276 305.86480815 297.3125 303.3125 C299.4409546 299.19014827 301.25761628 295.04800155 302.91015625 290.71484375 C303.79368802 288.51393128 304.73864175 286.38073926 305.7265625 284.2265625 C309.2339213 276.38701255 312.1212361 268.27719559 315.13745117 260.23901367 C320.19110414 246.79013927 325.51506181 233.46144694 332.125 220.6875 C336.1450696 212.76921039 339.87793752 204.7804649 343.22265625 196.55078125 C345.87079832 190.18138741 348.81847504 183.98079594 351.847229 177.78482056 C353.08583704 175.25028401 354.3162415 172.71179217 355.54727173 170.17356873 C356.4633979 168.28495166 357.38058988 166.39685484 358.29785156 164.50878906 C360.58972746 159.78434265 362.86835682 155.05387718 365.125 150.3125 C365.48803223 149.5498584 365.85106445 148.7872168 366.22509766 148.00146484 C368.00230074 144.23284601 369.65295414 140.46342152 371.125 136.5625 C372.51377122 132.91147702 374.29080141 129.71772018 376.3125 126.375 C379.51398527 121.05287278 382.02231218 115.63261545 384.44018555 109.92993164 C386.1930766 105.80568502 388.06687006 101.7971659 390.125 97.8125 C392.71114988 92.74309746 394.79427893 87.58875794 396.7578125 82.25 C398.39750787 77.95997942 400.32026456 73.81005072 402.27734375 69.65625 C403.19437191 66.28555191 402.63826395 65.03690122 401 62 C400.08080367 60.53716469 399.12110984 59.09908571 398.125 57.6875 C395.34003245 53.60514513 393.07484498 49.47729706 391 45 C390.566875 44.195625 390.13375 43.39125 389.6875 42.5625 C388.37173577 37.65828787 388.98194889 32.89727707 391.375 28.4375 C395.67369299 26.08345384 400.20659873 26.70247854 405 27 C405.61875 25.6696875 405.61875 25.6696875 406.25 24.3125 C410.11051995 17.00508723 414.87565883 13.86686636 422 10 C422.61230469 9.64292969 423.22460938 9.28585937 423.85546875 8.91796875 C428.9207195 6.28307584 433.59214168 7.09687678 439 8 C439.14179687 7.37480469 439.28359375 6.74960938 439.4296875 6.10546875 C440.14726725 3.45632159 440.74442053 2.57890563 443 1 C446.93420258 -0.01997845 449.08706242 -0.42603754 452.8125 1.3125 C457.87352619 5.21672021 458.16966183 9.71950824 459.32421875 15.703125 C460.33197454 20.43875788 461.32755675 22.69136889 465 26 C466.31847349 28.24346046 467.46575482 30.40210365 468.5625 32.75 C469.06632202 33.82411133 469.06632202 33.82411133 469.58032227 34.91992188 C474.54440354 45.95071658 478.13272606 57.56178124 481.9707489 69.01905823 C484.0771163 75.28352802 486.34143293 81.4856482 488.625 87.6875 C493.59022961 101.30126889 497.83300444 115.12449723 502 129 C502.30647461 130.01352539 502.61294922 131.02705078 502.92871094 132.07128906 C505.8753128 141.844021 508.6640888 151.65132089 511.2578125 161.5234375 C511.45377014 162.26876236 511.64972778 163.01408722 511.85162354 163.78199768 C512.81587166 167.45676715 513.77240749 171.13330952 514.71679688 174.81323242 C517.89418037 187.10245082 521.70808147 199.12316378 526.375 210.9375 C526.81162964 212.04883301 526.81162964 212.04883301 527.25708008 213.18261719 C529.32655327 218.40316976 531.46857913 223.59122012 533.6875 228.75 C533.96062012 229.39316162 534.23374023 230.03632324 534.51513672 230.69897461 C535.79592434 233.62422552 537.13244201 236.18479678 538.99609375 238.78515625 C541.73777415 243.18360259 542.96309656 247.72753628 544.375 252.6875 C544.97676857 254.73860313 545.57965228 256.78937938 546.18359375 258.83984375 C546.48378418 259.86706543 546.78397461 260.89428711 547.09326172 261.95263672 C548.70833119 267.38055732 550.46053696 272.765308 552.22216797 278.1472168 C553.20643029 281.20775247 554 283.76326708 554 287 C555.06637695 286.91697632 555.06637695 286.91697632 556.15429688 286.83227539 C570.68140895 285.72005784 585.18739946 284.82059241 599.75 284.375 C601.01908203 284.33511963 602.28816406 284.29523926 603.59570312 284.25415039 C609.36259003 284.09217179 615.11739255 283.98567046 620.88657761 284.01690102 C630.03687059 284.0630088 639.15557023 283.80883725 648.296875 283.4140625 C649.78842741 283.35148825 651.27998433 283.28902126 652.77154541 283.22665405 C655.86392615 283.09638097 658.95616489 282.96319007 662.04833984 282.828125 C665.97315577 282.65716131 669.8983133 282.49619997 673.82365036 282.33771706 C676.89198694 282.21226613 679.96001246 282.08016918 683.02799225 281.94630051 C684.47409618 281.88420747 685.92029932 281.82437464 687.36660004 281.76704788 C695.43670856 281.44424651 703.33489189 280.80502579 711.30462646 279.4335022 C714.75615413 278.87838625 718.00489053 278.73366771 721.5 278.75 C722.6240625 278.74484375 723.748125 278.7396875 724.90625 278.734375 C729.1592133 279.09952841 731.96687895 279.96687895 735 283 C735.4375 286.375 735.4375 286.375 735 290 C731.33511645 294.2559938 726.23735961 295.49383122 721 297 C722.21236328 297.16435547 722.21236328 297.16435547 723.44921875 297.33203125 C724.51785156 297.49058594 725.58648438 297.64914062 726.6875 297.8125 C727.74324219 297.96332031 728.79898438 298.11414063 729.88671875 298.26953125 C734.15509363 299.27101946 736.92115018 300.88468806 739.96484375 304.03125 C743.00375416 306.9710021 746.56340482 308.09873518 750.44140625 309.65625 C753.24957997 311.13107711 754.43863181 312.26120661 756 315 C756.63009008 319.9619594 756.82485645 321.85975726 753.875 325.9375 C750.77431907 328.16190154 748.7694321 328.73701637 745 329 C744.979375 330.010625 744.95875 331.02125 744.9375 332.0625 C744.33199114 336.43463015 741.96882873 338.63536309 738.88671875 341.6171875 C736.89912704 343.07393173 735.4089977 343.58520569 733 344 C732.20896991 347.16412036 732.03309573 349.83906152 732.25 353.0625 C732 357 732 357 729.91796875 359.0234375 C726.73491124 361.17956481 723.52098424 362.88395227 720.0625 364.5625 C718.87785156 365.14128906 717.69320312 365.72007812 716.47265625 366.31640625 C715.32667969 366.87199219 714.18070313 367.42757813 713 368 C711.95070313 368.55816406 710.90140625 369.11632812 709.8203125 369.69140625 C707.20141273 370.90654672 705.6404405 371.31855408 702.8125 371.375 C701.554375 371.58125 700.29625 371.7875 699 372 C697.26461808 374.39224959 697.26461808 374.39224959 696 377 C691.68120632 379.30832076 687.10698308 379.65216075 682.3125 380.125 C681.47380371 380.20919189 680.63510742 380.29338379 679.77099609 380.38012695 C667.97178795 381.4724003 656.27691703 381.14766888 644.4609375 380.51953125 C631.41484116 379.86316068 618.36367225 379.66125484 605.30419922 379.44775391 C602.21313501 379.39607021 599.12220703 379.33894113 596.03125 379.28125 C595.09486694 379.26767456 594.15848389 379.25409912 593.19372559 379.2401123 C589.01574929 379.16008922 585.07294918 379.04902862 581 378 C585.3262326 392.37435881 589.77210293 406.65093935 594.9375 420.75 C598.7728768 431.26749905 602.24086542 441.85453686 605.5 452.5625 C605.82059891 453.60549255 605.82059891 453.60549255 606.14767456 454.66955566 C608.60991916 462.70488945 610.75238832 470.67568188 612 479 C612.6185083 479.11625732 613.2370166 479.23251465 613.87426758 479.35229492 C616.60906278 480.18557983 617.56213744 481.6232953 619.01708984 484.01806641 C621.10379312 488.22568121 622.40366599 492.71839722 623.8125 497.1875 C624.59047265 499.59090709 625.37198827 501.99316901 626.15625 504.39453125 C626.3701387 505.05046265 626.5840274 505.70639404 626.80439758 506.38220215 C630.29966141 517.03886141 634.07431769 527.60254 637.8006897 538.18002319 C643.38709273 554.04152735 648.40712729 569.68661882 651.75 586.1875 C651.91586609 587.00017334 652.08173218 587.81284668 652.25262451 588.65014648 C655.15007881 602.92945024 657.70214337 617.26700084 660.07092285 631.64297485 C660.43881263 633.87193383 660.81141558 636.10012028 661.18884277 638.32748413 C661.71762006 641.46592971 662.22522436 644.60706894 662.7265625 647.75 C662.96643387 649.15074516 662.96643387 649.15074516 663.21115112 650.57978821 C664.04976899 656.02973922 664.06283215 659.8456871 662 665 C661.45472656 665.50789062 660.90945313 666.01578125 660.34765625 666.5390625 C658.66583343 668.03146491 658.66583343 668.03146491 658.99609375 670.9609375 C659.14175781 672.08757813 659.28742187 673.21421875 659.4375 674.375 C660.02102851 678.94860183 660.14748072 681.85948067 658 686 C655.59258212 688.58574513 654.22189742 688.97069279 650.6875 689.4375 C645.2940206 688.79759566 641.86378195 686.35191938 637.58203125 683.24609375 C632.74929752 679.74400683 628.89215904 677.15281373 623 676 C622.690625 676.763125 622.38125 677.52625 622.0625 678.3125 C619.52809871 681.61490168 617.6035262 682.63001845 613.640625 683.7421875 C604.47286758 684.63726441 595.77980566 678.37434989 588.32421875 673.70703125 C585.08930227 671.80263142 585.08930227 671.80263142 581.45703125 671.57421875 C577.12480244 670.8546282 574.75095044 669.30187632 572 666 C569.76778443 662.49591498 567.90808133 658.84439909 566.0625 655.125 C565.53527344 654.0848877 565.00804688 653.04477539 564.46484375 651.97314453 C562.96043589 648.98980369 561.47679981 645.9970817 560 643 C559.6582373 642.31615234 559.31647461 641.63230469 558.96435547 640.92773438 C554.49849569 631.96110581 550.72211773 622.68095957 546.875 613.4375 C546.37162109 612.23013184 545.86824219 611.02276367 545.34960938 609.77880859 C535.90724688 586.87890246 535.90724688 586.87890246 535.51953125 579.8671875 C535.14183225 573.64968082 532.37374311 568.65596788 529.6875 563.125 C522.70605845 548.06943329 517.54396444 532.57417465 512.52197266 516.77490234 C511.23931217 512.7400583 509.93370267 508.7130592 508.62167358 504.68768311 C503.45762519 488.82618328 498.57776881 473.01453647 494.71923828 456.77685547 C489.01652627 433.21950775 481.57436528 409.77215549 472.77099609 387.1953125 C471.70799651 384.1685575 470.86205388 381.08906519 470 378 C469.01136963 378.0729126 468.02273926 378.1458252 467.00415039 378.22094727 C458.97268979 378.77423532 450.98494961 379.08075193 442.93359375 379.02734375 C442.07625641 379.02183502 441.21891907 379.01632629 440.33560181 379.01065063 C436.82037867 378.9832867 433.30533313 378.94846497 429.7902832 378.90405273 C419.61031555 378.78448778 409.78980755 379.04967271 399.70532227 380.4855957 C393.90604971 381.29069996 388.08787579 381.70752002 382.25 382.125 C380.57744141 382.25455078 380.57744141 382.25455078 378.87109375 382.38671875 C371.56752237 382.92237067 364.32211116 383.10431773 357 383 C356.79375 384.175625 356.5875 385.35125 356.375 386.5625 C355.41259667 390.95518379 353.85681875 394.99030942 352.125 399.125 C350.08271739 404.03198143 348.41507528 408.82818035 347.125 414 C343.64515944 427.75986956 339.17675456 441.65385222 332.46484375 454.1875 C330.48645453 457.9860073 328.85473234 461.91701343 327.1875 465.8581543 C325.07114182 470.76253953 322.75634216 475.55364962 320.37109375 480.33203125 C319.71930055 481.64651593 319.06760865 482.96105085 318.41601562 484.27563477 C317.43109387 486.26134349 316.4408705 488.24339916 315.43286133 490.21749878 C314.48155339 492.08102667 313.5499104 493.95330991 312.62109375 495.828125 C311.79242798 497.4663623 311.79242798 497.4663623 310.94702148 499.13769531 C309.71927574 501.90245048 309.71927574 501.90245048 310.7409668 504.28759766 C312.13921677 506.18934776 313.56589435 507.60596192 315.375 509.125 C316.09171875 509.73085938 316.8084375 510.33671875 317.546875 510.9609375 C318.35640625 511.63382813 319.1659375 512.30671875 320 513 C321.33804688 514.13308594 321.33804688 514.13308594 322.703125 515.2890625 C326.87490821 518.80273017 331.04493081 522.29598892 335.390625 525.59375 C343.77248692 531.96835483 351.21302083 538.90756077 358.52880859 546.47875977 C362.96920888 551.07021914 367.58088441 555.45684034 372.25 559.8125 C376.64650312 563.91423699 381.03411116 568.02275118 385.37109375 572.1875 C392.69665391 579.2016681 400.04725097 585.82774008 408.18359375 591.88671875 C421.17447081 601.63438101 421.17447081 601.63438101 422.8125 608.3125 C423.0253659 612.49886266 422.36078417 615.07773976 421 619 C421.78375 619.556875 422.5675 620.11375 423.375 620.6875 C426.19503956 623.17182056 427.15720706 624.37599035 428 628 C427.68573731 634.07574537 427.68573731 634.07574537 425.5625 636.9375 C424 638 424 638 422 638 C421.90203125 638.54527344 421.8040625 639.09054687 421.703125 639.65234375 C420.24720192 646.99471443 418.27320799 655.295094 412 660 C404.6312887 662.37024193 396.91882445 661.52649728 389.75 659 C382.09778748 656.43084562 372.19061576 654.70761449 364.5234375 658.09375 C363.25108471 658.96564115 361.99897886 659.86813843 360.7734375 660.8046875 C357.40262661 663.07664374 353.98006881 663.31608326 350 663 C337.55976073 660.17183268 327.6196422 651.93981382 318 644 C316.72387057 642.97114825 315.44642815 641.94392382 314.16796875 640.91796875 C307.27422806 635.37443913 300.53979953 629.75695961 294.01953125 623.77734375 C291.50991148 621.56868418 288.79759786 619.82700268 286 618 C280.96127286 614.0573872 276.06348375 609.95935195 271.28125 605.7109375 C270.33958984 604.88142578 270.33958984 604.88142578 269.37890625 604.03515625 C268.13926196 602.93983645 266.90726004 601.83579785 265.68359375 600.72265625 C264.18761381 599.40387667 262.59945218 598.19117097 261 597 C256.22449954 598.59183349 254.77469919 602.85024344 252.23046875 607.01953125 C249.78390374 610.28875911 247.55570071 612.02513193 244 614 C239.89284143 614.57644331 237.82056524 614.45586958 234.1875 612.4375 C231.50862728 609.4524704 230.82197577 606.88570366 230 603 C226.04 602.01 222.08 601.02 218 600 C217.67 601.32 217.34 602.64 217 604 C213.93752817 607.06247183 211.66749255 606.96917059 207.36328125 607.16796875 C202.87577624 607.14353587 199.04352642 606.10054136 194.8125 604.6875 C194.12736328 604.47416016 193.44222656 604.26082031 192.73632812 604.04101562 C187.76224023 602.4372433 183.51349004 600.81618805 180.125 596.75 C177.76944828 590.99198469 180.59833002 584.75415987 182.5 579.125 C184.54905886 572.9315274 184.54905886 572.9315274 185.5 566.5 C186.12490227 557.21573772 190.03952918 547.06332508 194.3984375 538.89453125 C195.23502421 536.25982634 194.7496425 534.64562257 194 532 C192.60401275 530.02728061 192.60401275 530.02728061 190.75390625 528.29296875 C190.08609131 527.6278125 189.41827637 526.96265625 188.73022461 526.27734375 C188.01487549 525.58769531 187.29952637 524.89804687 186.5625 524.1875 C185.47304077 523.11628906 185.47304077 523.11628906 184.36157227 522.0234375 C179.8234892 517.61089411 175.1409355 513.55696179 170.1015625 509.72265625 C167.26340488 507.39621107 164.98658776 504.74735251 162.64453125 501.93359375 C161.01307468 500.01537284 159.29987138 498.25996293 157.5 496.5 C155.13790804 494.1879141 152.94455858 491.80666031 150.80859375 489.28515625 C146.97961148 484.88299123 142.83606286 480.90333557 138.5625 476.9375 C137.85029297 476.26912109 137.13808594 475.60074219 136.40429688 474.91210938 C132.18290239 470.96677339 127.88654679 467.14880075 123.44897461 463.44750977 C122.97081299 462.96983154 122.49265137 462.49215332 122 462 C122 461.34 122 460.68 122 460 C121.34 460 120.68 460 120 460 C120 459.34 120 458.68 120 458 C119.10087891 457.61134766 119.10087891 457.61134766 118.18359375 457.21484375 C115.81482178 455.89697598 114.72434502 454.68278502 113.0625 452.5625 C108.07221522 446.62012142 101.98475056 441.89579595 96 437 C94.91188756 440.89097867 93.82771192 444.78303285 92.74682617 448.67602539 C92.38033489 449.99401826 92.01285791 451.31173753 91.64428711 452.62915039 C88.01547822 465.60474125 84.73076249 477.77912643 84.40625 491.2734375 C82.970098 504.44737031 70.7662367 515.47654147 60.9375 523.5 C58.42268653 525.64026678 56.61889317 527.64214223 54.5625 530.1875 C51.39646892 533.88469744 48.9814148 535.44650947 44 536 C43.21882813 535.67773438 42.43765625 535.35546875 41.6328125 535.0234375 C38.67927754 533.87532747 36.64695957 533.85856361 33.5 534 C28.37914673 534.23015071 24.86763238 533.49410591 20.8125 530.25 C16.22009151 524.54907912 16.59121776 517.60703186 16.375 510.625 C16.33632812 509.60277344 16.29765625 508.58054687 16.2578125 507.52734375 C16.16402036 505.01840403 16.07832121 502.50946236 16 500 C14.8965625 499.87496094 13.793125 499.74992187 12.65625 499.62109375 C7.23279955 498.69980249 5.38811389 495.94524803 2.27734375 491.5859375 C1.08453048 489.8688942 -0.09357427 488.14150185 -1.25390625 486.40234375 C-2.87789365 483.93656104 -2.87789365 483.93656104 -5.15234375 482.31640625 C-8.60760139 477.98455048 -8.27889267 472.61980093 -7.7109375 467.28466797 C-7.2199793 464.3144749 -6.62887821 461.3815629 -6 458.4375 C-5.77505859 457.32544189 -5.55011719 456.21338379 -5.31835938 455.06762695 C-4.01871301 448.69682005 -2.64673987 442.34132509 -1.28125 435.984375 C-0.83702929 433.91527159 -0.39283021 431.84616363 0.05114746 429.77700806 C0.35067625 428.38263513 0.65088925 426.98840901 0.95178223 425.59432983 C3.37146386 414.36478952 5.47185762 403.11621449 7.31445312 391.77612305 C7.49427734 390.67953369 7.67410156 389.58294434 7.859375 388.453125 C8.03001465 387.3919043 8.2006543 386.33068359 8.37646484 385.23730469 C9.04514456 381.76561594 10.00261665 378.43316893 10.9609375 375.03125 C12.21850713 370.13392151 12.21850713 370.13392151 9.9921875 365.640625 C8.96351563 364.85171875 7.93484375 364.0628125 6.875 363.25 C2.35377113 359.49559817 -0.24066732 356.67874728 -1.33984375 350.77734375 C-1.85203504 348.81340136 -1.85203504 348.81340136 -3.90625 347.921875 C-4.5971875 347.61765625 -5.288125 347.3134375 -6 347 C-9.90983274 342.89944371 -11.80107918 339.25828891 -14 334 C-14.61875 333.2575 -15.2375 332.515 -15.875 331.75 C-20.77152137 325.41332529 -23.38675365 317.77291423 -25 310 C-27.21371124 318.28464661 -28.57901483 326.58750803 -29.8125 335.0625 C-32.3514506 352.24446969 -36.14467247 369.12509279 -40.10327148 386.02807617 C-41.42436791 391.6803679 -42.71824004 397.33867487 -44 403 C-44.17934082 403.78942993 -44.35868164 404.57885986 -44.54345703 405.39221191 C-51.4927759 435.70015035 -51.4927759 435.70015035 -53.93994141 466.61132812 C-54.41498311 485.50485677 -59.35461514 518.30145172 -72.6875 532.25 C-75 534 -75 534 -77 534 C-77.25007813 534.86367188 -77.50015625 535.72734375 -77.7578125 536.6171875 C-79.07495052 540.20411052 -80.73430646 542.96646727 -82.875 546.125 C-83.89207031 547.64480469 -83.89207031 547.64480469 -84.9296875 549.1953125 C-89.61083744 555.53694581 -89.61083744 555.53694581 -94 557 C-95.62624082 556.89233946 -97.25120058 556.76473348 -98.875 556.625 C-105.38047514 556.50436867 -109.49393446 559.22020378 -114.98828125 562.42578125 C-119.22597672 564.64081533 -121.3182234 564.88792315 -126 564 C-131.16968943 561.93212423 -133.58493586 559.36775007 -137.0625 555.0625 C-141.63785291 549.66532204 -146.21006538 548.06364332 -152.9609375 546.328125 C-156 545 -156 545 -157.87109375 542.09375 C-159.87709176 536.59634369 -160.0515513 531.33674139 -159.9140625 525.55859375 C-159.89899658 524.75969727 -159.88393066 523.96080078 -159.8684082 523.13769531 C-159.83156904 521.52320672 -159.77586481 519.90902201 -159.69995117 518.29589844 C-159.64740126 516.13000882 -159.64010106 514.13728959 -160 512 C-161.30166332 510.63573164 -162.63585075 509.30178814 -164 508 C-165.5921457 501.50572148 -164.47776855 496.48086801 -162.75 490.125 C-161.05829012 483.48484984 -159.50819853 476.89477688 -158.4375 470.125 C-158.32438477 469.41794922 -158.21126953 468.71089844 -158.09472656 467.98242188 C-157.85812051 466.48855624 -157.6233175 464.99440413 -157.39013672 463.5 C-156.61576714 458.53783198 -155.81811314 453.58014057 -155 448.625 C-154.7688147 447.13444092 -154.7688147 447.13444092 -154.53295898 445.61376953 C-154.37770752 444.68161621 -154.22245605 443.74946289 -154.0625 442.7890625 C-153.92972656 441.96100098 -153.79695313 441.13293945 -153.66015625 440.27978516 C-152.90220958 437.66229034 -151.68189387 436.11949569 -150 434 C-144.92154398 417.40097246 -144.03642964 398.54352992 -143.625 381.3125 C-143.26538171 368.19720957 -140.39181558 355.7472437 -136.95703125 343.125 C-134.73732564 334.86225912 -133.32816866 326.71671797 -132.11169434 318.25061035 C-130.21374051 305.16316944 -127.56755613 292.46720917 -124.14624023 279.68579102 C-123.74051245 278.16948982 -123.33500554 276.65312952 -122.9296875 275.13671875 C-122.60609001 273.9269915 -122.60609001 273.9269915 -122.2759552 272.69282532 C-118.63664785 258.98167112 -115.31852273 245.18607504 -111.93626404 231.40978622 C-111.20545996 228.43483865 -110.4729716 225.46030712 -109.74040127 222.48579407 C-108.85475908 218.8891687 -107.97032935 215.29224548 -107.0859375 211.6953125 C-106.91314711 210.99301891 -106.74035671 210.29072533 -106.56233025 209.56715012 C-104.70197529 202.00259726 -102.85898801 194.43455662 -101.06176758 186.85473633 C-100.74949013 185.54258056 -100.43716393 184.23043639 -100.12478638 182.91830444 C-99.55193905 180.50605128 -98.98317721 178.09282204 -98.41964722 175.67837524 C-96.62497208 168.1272791 -94.41847843 160.78995517 -91.9375 153.4375 C-87.53004787 140.17594471 -84.68290256 126.70148995 -82 113 C-81.69013731 111.42837888 -81.3802461 109.85676339 -81.0703125 108.28515625 C-80.59387237 105.86611747 -80.1184602 103.44687577 -79.64453125 101.02734375 C-78.83783541 97.23831782 -77.79677488 93.54022624 -76.734375 89.81640625 C-75.9237775 86.70767859 -75.33409851 83.59661818 -74.75 80.4375 C-72.6847028 69.78318907 -69.7209269 59.35613204 -66.80615234 48.90820312 C-66.1300216 46.46905429 -65.4755617 44.02599558 -64.83203125 41.578125 C-64.51621094 40.43859375 -64.20039062 39.2990625 -63.875 38.125 C-63.49988281 36.73667969 -63.49988281 36.73667969 -63.1171875 35.3203125 C-61.30267229 31.551704 -58.41097969 29.5426845 -54.5625 28.0625 C-51.01493192 27.97597395 -48.98202423 29.14451826 -46 31 C-42.83536372 35.74695442 -43.4790408 40.93753888 -44.41796875 46.45703125 C-44.76719317 48.08236896 -45.1240947 49.70607429 -45.48828125 51.328125 C-46.41579819 56.17103785 -46.67911207 61.08534795 -47 66 C-44.50756965 65.38872602 -44.50756965 65.38872602 -42 64 C-38.29935129 56.11657582 -36.49045481 43.42490171 -39 35 C-40.33604676 25.98168436 -35.38766255 17.93583266 -30.41015625 10.68359375 C-23.66022209 2.39388681 -10.46365904 -5.23182952 0 0 Z M418 228 C415.42218881 233.68488314 412.86135993 239.37705522 410.31298828 245.07519531 C409.46472383 246.96478403 408.61185193 248.85231418 407.75341797 250.73730469 C402.36260791 262.57518865 397.5777257 274.53005558 393.3125 286.8125 C392.972686 287.78169876 392.972686 287.78169876 392.62600708 288.77047729 C391.98752638 290.60029771 391.36258325 292.4348249 390.73828125 294.26953125 C390.37774658 295.32760986 390.01721191 296.38568848 389.64575195 297.47583008 C388.7134338 299.97265102 388.7134338 299.97265102 390 302 C399.75274536 301.25958838 409.50334406 300.49374034 419.25170898 299.69775391 C420.89513548 299.56432948 422.53869467 299.43253081 424.18237305 299.30224609 C426.58415614 299.11165466 428.98545605 298.91577604 431.38671875 298.71875 C432.12307053 298.661427 432.8594223 298.604104 433.61808777 298.54504395 C437.43414165 298.27007991 437.43414165 298.27007991 441 297 C438.27192626 286.08127848 434.6291851 275.4369471 431.125 264.75 C430.50627667 262.85554508 429.88778552 260.9610143 429.26953125 259.06640625 C425.88319019 248.69856658 422.46530056 238.34172501 419 228 C418.67 228 418.34 228 418 228 Z M-24 300 C-23 303 -23 303 -23 303 Z M-25 305 C-24 307 -24 307 -24 307 Z " fill="#000000" transform="translate(1496,5)"/>
</svg>
