<svg width="222" height="246" viewBox="0 0 222 246" fill="none" xmlns="http://www.w3.org/2000/svg">
<path d="M6.0513 30.5068C6.12625 52.8234 6.0876 75.1411 6.3306 97.4558C6.43149 106.722 12.5886 114.186 21.4237 114.358C37.8723 114.679 54.4327 116.069 70.7836 113.571C84.748 111.437 94.0582 102.901 97.6065 89.2534C100.948 76.4005 97.9043 65.1462 86.3869 57.1908C84.498 55.8861 83.7596 54.5824 85.0113 52.2196C95.8514 31.7587 85.2478 7.49123 57.9729 3.26496C46.0542 1.41814 34.0262 2.18706 22.0742 2.57604C13.238 2.86364 6.86966 10.0969 6.29439 19.0242C6.06973 22.5105 6.12543 26.0147 6.0513 30.5068Z" fill="white"/>
<path d="M143.546 13.0517C131.724 39.516 121.388 66.5833 111.973 93.964C108.167 105.03 116.815 114.883 129.375 114.997C154.039 115.219 178.708 115.253 203.372 115.035C217.846 114.907 225.481 104.179 220.422 90.5562C211.438 66.3619 202.276 42.2124 192.329 18.4036C183.364 -3.05111 158.309 -5.818 143.546 13.0517Z" fill="white"/>
<path d="M88.4953 135.023C68.0585 122.545 41.9313 123.461 23.7053 137.296C2.9547 153.047 -4.93567 179.745 3.61238 205.284C14.2988 237.211 48.2646 253.109 79.3003 240.497C83.0732 238.964 85.6443 239.492 88.8244 241.723C96.5407 247.136 104.853 246.799 112.945 242.655C120.326 238.874 121.662 231.883 121.631 224.369C121.589 214.214 121.638 204.059 121.621 193.903C121.597 179.184 113.159 171.542 98.4386 173.172C94.353 173.624 92.5936 172.533 92.7162 168.209C92.9427 160.224 92.8131 152.23 92.8791 144.239C92.9081 140.727 92.0342 137.653 88.4953 135.023Z" fill="white"/>
<path d="M169.059 245.574C182.652 242.679 188.88 236.779 190.249 224.678C190.749 220.265 189.99 215.721 189.987 211.237C189.977 190.764 190.004 170.29 190.081 149.817C190.102 144.176 189.193 138.935 185.348 134.469C178.806 126.868 167.727 123.949 158.007 127.417C148.134 130.94 143.276 137.971 143.243 149.229C143.173 173.198 143.174 197.167 143.213 221.136C143.239 236.734 152.405 245.656 169.059 245.574Z" fill="white"/>
</svg>
